<?xml version="1.0" standalone="no"?>
<!DOCTYPE svg PUBLIC "-//W3C//DTD SVG 20010904//EN"
 "http://www.w3.org/TR/2001/REC-SVG-20010904/DTD/svg10.dtd">
<svg version="1.0" xmlns="http://www.w3.org/2000/svg"
 width="1280.000000pt" height="1280.000000pt" viewBox="0 0 1280.000000 1280.000000"
 preserveAspectRatio="xMidYMid meet">
<metadata>
Created by potrace 1.16, written by Peter Selinger 2001-2019
</metadata>
<g transform="translate(0.000000,1280.000000) scale(0.100000,-0.100000)"
fill="#000000" stroke="none">
<path d="M6025 11994 c-285 -23 -497 -52 -755 -104 -908 -183 -1742 -587
-2481 -1200 -158 -132 -545 -519 -675 -675 -778 -936 -1221 -2032 -1305 -3221
-15 -224 -7 -777 15 -974 130 -1155 551 -2145 1290 -3035 129 -155 516 -542
671 -671 934 -775 2007 -1212 3204 -1304 174 -13 648 -13 822 0 1196 92 2272
530 3204 1304 155 129 542 516 671 671 702 845 1129 1812 1269 2870 35 269 45
431 45 745 0 314 -10 476 -45 745 -140 1059 -567 2025 -1269 2870 -129 155
-516 542 -671 671 -567 471 -1174 811 -1845 1033 -385 128 -751 207 -1190 257
-138 15 -821 28 -955 18z m885 -558 c1053 -118 1948 -499 2755 -1170 156 -130
473 -447 604 -605 663 -796 1057 -1724 1166 -2741 23 -211 31 -633 16 -845
-77 -1101 -474 -2085 -1185 -2940 -130 -156 -447 -473 -606 -604 -814 -678
-1726 -1060 -2800 -1173 -194 -20 -764 -17 -970 5 -1033 113 -1951 503 -2751
1168 -158 132 -474 447 -608 609 -778 932 -1191 2063 -1191 3260 0 1090 350
2148 999 3018 287 385 658 756 1043 1043 726 541 1612 886 2503 973 243 24
238 24 575 21 196 -2 366 -9 450 -19z"/>
<path d="M5240 9320 c-73 -25 -142 -96 -164 -170 -20 -67 -20 -102 0 -171 15
-53 44 -83 1277 -1316 l1262 -1263 -1262 -1262 c-1233 -1234 -1262 -1264
-1277 -1317 -32 -110 -10 -199 68 -277 78 -78 167 -100 277 -68 53 15 84 46
1422 1382 796 795 1380 1386 1395 1412 24 39 27 56 27 130 0 74 -3 91 -27 130
-15 26 -599 617 -1395 1412 -1338 1336 -1369 1367 -1422 1382 -71 21 -113 20
-181 -4z"/>
</g>
</svg>
