<svg fill="none" height="512" viewBox="0 0 24 24" width="512" xmlns="http://www.w3.org/2000/svg"><g clip-rule="evenodd" fill="rgb(0,0,0)" fill-rule="evenodd"><path d="m5 1.5c-1.38071 0-2.5 1.11929-2.5 2.5v16c0 1.3807 1.11929 2.5 2.5 2.5h3c1.38071 0 2.5-1.1193 2.5-2.5v-16c0-1.38071-1.11929-2.5-2.5-2.5zm-1.5 2.5c0-.82843.67157-1.5 1.5-1.5h3c.82843 0 1.5.67157 1.5 1.5v16c0 .8284-.67157 1.5-1.5 1.5h-3c-.82843 0-1.5-.6716-1.5-1.5z"/><path d="m16 1.5c-1.3807 0-2.5 1.11929-2.5 2.5v16c0 1.3807 1.1193 2.5 2.5 2.5h3c1.3807 0 2.5-1.1193 2.5-2.5v-16c0-1.38071-1.1193-2.5-2.5-2.5zm-1.5 2.5c0-.82843.6716-1.5 1.5-1.5h3c.8284 0 1.5.67157 1.5 1.5v16c0 .8284-.6716 1.5-1.5 1.5h-3c-.8284 0-1.5-.6716-1.5-1.5z"/></g></svg>