<svg fill="none" height="512" viewBox="0 0 24 24" width="512" xmlns="http://www.w3.org/2000/svg"><path clip-rule="evenodd" d="m18.5 3c0-.1844-.1015-.35383-.2641-.44084-.1625-.08701-.3598-.07747-.5132.02482l-5.1095 3.40626c-.2147.14318-.403.31657-.5607.51249-.0172-.00181-.0348-.00273-.0525-.00273h-4c-1.38071 0-2.5 1.11929-2.5 2.5v6c0 1.3807 1.11929 2.5 2.5 2.5h4c.0177 0 .0353-.0009.0525-.0027.1577.1959.346.3693.5607.5125l5.1095 3.4062c.1534.1023.3507.1118.5132.0248.1626-.087.2641-.2564.2641-.4408zm-6 12.9296c0 .5016.2507.9699.6679 1.2481l4.3321 2.888v-16.13144l-4.3321 2.88803c-.4172.2782-.6679.74655-.6679 1.24808zm-1-8.4296h-3.5c-.82843 0-1.5.67157-1.5 1.5v6c0 .8284.67157 1.5 1.5 1.5h3.5z" fill="rgb(0,0,0)" fill-rule="evenodd"/></svg>