<svg fill="none" height="512" viewBox="0 0 24 24" width="512" xmlns="http://www.w3.org/2000/svg"><g fill="rgb(0,0,0)"><path d="m12.5 8c0-.82843.6716-1.5 1.5-1.5s1.5.67157 1.5 1.5v2c0 1.3807 1.1193 2.5 2.5 2.5.2761 0 .5-.2239.5-.5s-.2239-.5-.5-.5c-.8284 0-1.5-.6716-1.5-1.5v-2c0-1.38071-1.1193-2.5-2.5-2.5s-2.5 1.11929-2.5 2.5v8c0 .8284-.6716 1.5-1.5 1.5-.82843 0-1.5-.6716-1.5-1.5v-2c0-1.3807-1.11929-2.5-2.5-2.5h-.5c-.27614 0-.5.2239-.5.5s.22386.5.5.5h.5c.82843 0 1.5.6716 1.5 1.5v2c0 1.3807 1.11929 2.5 2.5 2.5 1.3807 0 2.5-1.1193 2.5-2.5z"/><path clip-rule="evenodd" d="m12 1.5c-5.79899 0-10.5 4.70101-10.5 10.5 0 5.799 4.70101 10.5 10.5 10.5 5.799 0 10.5-4.701 10.5-10.5 0-5.79899-4.701-10.5-10.5-10.5zm-9.5 10.5c0-5.24671 4.25329-9.5 9.5-9.5 5.2467 0 9.5 4.25329 9.5 9.5 0 5.2467-4.2533 9.5-9.5 9.5-5.24671 0-9.5-4.2533-9.5-9.5z" fill-rule="evenodd"/></g></svg>