<svg fill="none" height="512" viewBox="0 0 24 24" width="512" xmlns="http://www.w3.org/2000/svg"><g fill="rgb(0,0,0)"><path d="m7 12c0-1.3807 1.11929-2.5 2.5-2.5h1c.2761 0 .5.22386.5.5 0 .2761-.2239.5-.5.5h-1c-.82843 0-1.5.6716-1.5 1.5s.67157 1.5 1.5 1.5h1c.2761 0 .5.2239.5.5s-.2239.5-.5.5h-1c-1.38071 0-2.5-1.1193-2.5-2.5z"/><path clip-rule="evenodd" d="m13.5 9.5c-.2761 0-.5.22386-.5.5v4c0 .2761.2239.5.5.5h1c1.3807 0 2.5-1.1193 2.5-2.5s-1.1193-2.5-2.5-2.5zm1 4h-.5v-3h.5c.8284 0 1.5.6716 1.5 1.5s-.6716 1.5-1.5 1.5z" fill-rule="evenodd"/><path d="m13 5c0-.27614.2239-.5.5-.5 3.5899 0 6.5 2.91015 6.5 6.5 0 .2761-.2239.5-.5.5s-.5-.2239-.5-.5c0-3.03757-2.4624-5.5-5.5-5.5-.2761 0-.5-.22386-.5-.5z"/><path d="m10.5 19.5c.2761 0 .5-.2239.5-.5s-.2239-.5-.5-.5c-3.03757 0-5.5-2.4624-5.5-5.5 0-.2761-.22386-.5-.5-.5s-.5.2239-.5.5c0 3.5899 2.91015 6.5 6.5 6.5z"/><path clip-rule="evenodd" d="m.5 12c0-6.35127 5.14873-11.5 11.5-11.5 6.3513 0 11.5 5.14873 11.5 11.5 0 6.3513-5.1487 11.5-11.5 11.5-6.35127 0-11.5-5.1487-11.5-11.5zm11.5-10.5c-5.79899 0-10.5 4.70101-10.5 10.5 0 5.799 4.70101 10.5 10.5 10.5 5.799 0 10.5-4.701 10.5-10.5 0-5.79899-4.701-10.5-10.5-10.5z" fill-rule="evenodd"/></g></svg>