<svg fill="none" height="512" viewBox="0 0 24 24" width="512" xmlns="http://www.w3.org/2000/svg"><g fill="rgb(0,0,0)"><path d="m19.2629 3.07467c.1474.09111.2371.25204.2371.42533v3c0 .27614-.2239.5-.5.5s-.5-.22386-.5-.5v-2.19098l-.2764.13819c-.247.1235-.5473.02339-.6708-.2236s-.0234-.54733.2236-.67082l1-.5c.155-.0775.3391-.06922.4865.02188z"/><path d="m14.3393 8.76124c.1319.24263.0421.54621-.2005.67807l-1.161.63099c1.7764.6631 3.0222 2.488 3.0222 4.5819 0 2.6373-1.9763 4.8478-4.5 4.8478-.2761 0-.5-.2239-.5-.5s.2239-.5.5-.5c1.8946 0 3.5-1.6827 3.5-3.8478 0-1.8394-1.1587-3.3306-2.6689-3.7377l.8231 1.7896c.1154.2509.0056.5478-.2452.6632-.2509.1154-.5478.0056-.6632-.2453l-1.2-2.6087c-.11-.2391-.0158-.52258.2154-.64826l2.4-1.30435c.2427-.13186.5463-.04207.6781.20055z"/><path d="m5.86124 19.5607c-.24262.1318-.33241.4354-.20055.6781.13186.2426.43544.3324.67807.2005l2.4-1.3043c.23126-.1257.32548-.4092.21549-.6483l-1.2-2.6087c-.11541-.2509-.41233-.3607-.6632-.2453-.25088.1154-.3607.4123-.2453.6632l.8232 1.7896c-1.51028-.4071-2.66895-1.8983-2.66895-3.7377 0-2.1651 1.60544-3.8478 3.5-3.8478.27614 0 .5-.2239.5-.5 0-.27614-.22386-.5-.5-.5-2.52371 0-4.5 2.2105-4.5 4.8478 0 2.0939 1.24578 3.9188 3.02223 4.5819z"/><path clip-rule="evenodd" d="m14.5 5c0-2.48528 2.0147-4.5 4.5-4.5s4.5 2.01472 4.5 4.5-2.0147 4.5-4.5 4.5v11.5c0 1.3807-1.1193 2.5-2.5 2.5h-13c-1.38071 0-2.5-1.1193-2.5-2.5v-13c0-1.38071 1.11929-2.5 2.5-2.5h11.0275c-.0182-.16417-.0275-.331-.0275-.5zm4.5-3.5c-1.933 0-3.5 1.567-3.5 3.5s1.567 3.5 3.5 3.5 3.5-1.567 3.5-3.5-1.567-3.5-3.5-3.5zm-4.2439 5h-11.2561c-.82843 0-1.5.67157-1.5 1.5v13c0 .8284.67157 1.5 1.5 1.5h13c.8284 0 1.5-.6716 1.5-1.5v-11.61151c-1.5118-.34305-2.7345-1.44729-3.2439-2.88849z" fill-rule="evenodd"/></g></svg>