<svg fill="none" height="512" viewBox="0 0 24 24" width="512" xmlns="http://www.w3.org/2000/svg"><g fill="rgb(0,0,0)"><path d="m12 21.5c-5.24671 0-9.5-4.2533-9.5-9.5 0-5.24671 4.25329-9.5 9.5-9.5 5.2467 0 9.5 4.25329 9.5 9.5 0 .2761.2239.5.5.5s.5-.2239.5-.5c0-5.79899-4.701-10.5-10.5-10.5-5.79899 0-10.5 4.70101-10.5 10.5 0 5.799 4.70101 10.5 10.5 10.5.2761 0 .5-.2239.5-.5s-.2239-.5-.5-.5z"/><g clip-rule="evenodd" fill-rule="evenodd"><path d="m8.5 12c0-1.933 1.567-3.5 3.5-3.5s3.5 1.567 3.5 3.5-1.567 3.5-3.5 3.5-3.5-1.567-3.5-3.5zm3.5-2.5c-1.3807 0-2.5 1.1193-2.5 2.5s1.1193 2.5 2.5 2.5 2.5-1.1193 2.5-2.5-1.1193-2.5-2.5-2.5z"/><path d="m18.3554 15.5c-.9597 0-1.7962.5233-2.2413 1.2987-.9157.1516-1.6141.9471-1.6141 1.9058 0 1.0663.8639 1.9309 1.93 1.9319l4.1347.0289h.0035c1.0669 0 1.9318-.8649 1.9318-1.9318 0-1.0568-.8486-1.9155-1.9016-1.9316-.4447-.7773-1.2821-1.3019-2.243-1.3019zm-1.4587 1.9673c.2405-.5693.8037-.9673 1.4587-.9673.6708 0 1.2453.4176 1.4755 1.0087.0875.2249.3232.3551.5601.3097.057-.011.1162-.0168.1772-.0168.5146 0 .9318.4172.9318.9319 0 .5141-.4163.9309-.9302.9318l-4.1345-.0289h-.0035c-.5146 0-.9318-.4172-.9318-.9319 0-.5146.4172-.9318.9318-.9318h.0028c.2015.0006.3836-.1198.4621-.3054z"/></g></g></svg>