<svg fill="none" height="512" viewBox="0 0 24 24" width="512" xmlns="http://www.w3.org/2000/svg"><g clip-rule="evenodd" fill="rgb(0,0,0)" fill-rule="evenodd"><path d="m10 .5c-.2444 0-.453.176707-.49318.417801l-.43037 2.582199h-4.57645c-.27614 0-.5.22386-.5.5s.22386.5.5.5h4.9918c.00589.0001.01177.0001.01763 0h4.98117c.0059.0001.0117.0001.0176 0h4.9918c.2761 0 .5-.22386.5-.5s-.2239-.5-.5-.5h-4.5764l-.4304-2.582199c-.0402-.241094-.2488-.417801-.4932-.417801zm3.9098 3-.3333-2h-3.1529l-.3334 2z"/><path d="m11.5 13.7676c-.2942-.1702-.6357-.2676-1-.2676-1.10457 0-2 .8954-2 2s.89543 2 2 2c1.1046 0 2-.8954 2-2v-4.691l1.2764.6382c.247.1235.5473.0234.6708-.2236s.0234-.5473-.2236-.6708l-2-1.00001c-.155-.0775-.3391-.06922-.4865.02189-.1474.0911-.2371.25203-.2371.42532zm-1 .7324c-.55228 0-1 .4477-1 1s.44772 1 1 1c.5523 0 1-.4477 1-1s-.4477-1-1-1z"/><path d="m4.63689 6.65627c.09443-.09976.22574-.15627.36311-.15627h14c.1374 0 .2687.05651.3631.15627s.1437.23398.1361.37114l-.8235 14.99999c-.0145.2651-.2337.4726-.4992.4726h-12.35297c-.26549 0-.48469-.2075-.49925-.4726l-.82353-14.99999c-.00753-.13716.0417-.27138.13614-.37114zm.89131.84373.76863 14h11.40637l.7686-14z"/></g></svg>