<svg fill="none" height="512" viewBox="0 0 24 24" width="512" xmlns="http://www.w3.org/2000/svg"><g clip-rule="evenodd" fill="rgb(0,0,0)" fill-rule="evenodd"><path d="m12 3c.2761 0 .5.22386.5.5v8h1.5c.2761 0 .5.2239.5.5v3c0 .2761-.2239.5-.5.5h-1.5v5c0 .2761-.2239.5-.5.5s-.5-.2239-.5-.5v-5h-1.5c-.27614 0-.5-.2239-.5-.5v-3c0-.2761.22386-.5.5-.5h1.5v-8c0-.27614.2239-.5.5-.5zm1.5 11.5v-2h-3v2z"/><path d="m7 7.5h-1.5v13c0 .2761-.22386.5-.5.5s-.5-.2239-.5-.5v-13h-1.5c-.27614 0-.5-.22386-.5-.5v-3c0-.27614.22386-.5.5-.5h4c.27614 0 .5.22386.5.5v3c0 .27614-.22386.5-.5.5zm-.5-1h-3v-2h3z"/><path d="m19.5 20.5v-13h1.5c.2761 0 .5-.22386.5-.5v-3c0-.27614-.2239-.5-.5-.5h-4c-.2761 0-.5.22386-.5.5v3c0 .27614.2239.5.5.5h1.5v13c0 .2761.2239.5.5.5s.5-.2239.5-.5zm1-14v-2h-3v2z"/></g></svg>