<svg fill="none" height="512" viewBox="0 0 24 24" width="512" xmlns="http://www.w3.org/2000/svg"><g clip-rule="evenodd" fill="rgb(0,0,0)" fill-rule="evenodd"><path d="m7 5.5c0-.27614-.22386-.5-.5-.5s-.5.22386-.5.5v.56301c-.86261.22202-1.5 1.00507-1.5 1.93699s.63739 1.71497 1.5 1.93699v4.06301c0 .2761.22386.5.5.5s.5-.2239.5-.5v-4.06301c.86261-.22202 1.5-1.00507 1.5-1.93699s-.63739-1.71497-1.5-1.93699zm.5 2.5c0 .55228-.44772 1-1 1s-1-.44772-1-1 .44772-1 1-1 1 .44772 1 1z"/><path d="m17.5 5c.2761 0 .5.22386.5.5v.56301c.8626.22202 1.5 1.00507 1.5 1.93699s-.6374 1.71497-1.5 1.93699v4.06301c0 .2761-.2239.5-.5.5s-.5-.2239-.5-.5v-4.06301c-.8626-.22202-1.5-1.00507-1.5-1.93699s.6374-1.71497 1.5-1.93699v-.56301c0-.27614.2239-.5.5-.5zm0 4c.5523 0 1-.44772 1-1s-.4477-1-1-1-1 .44772-1 1 .4477 1 1 1z"/><path d="m12.5 5.5c0-.27614-.2239-.5-.5-.5s-.5.22386-.5.5v4.06301c-.8626.22202-1.5 1.00509-1.5 1.93699s.6374 1.715 1.5 1.937v.563c0 .2761.2239.5.5.5s.5-.2239.5-.5v-.563c.8626-.222 1.5-1.0051 1.5-1.937s-.6374-1.71497-1.5-1.93699zm.5 6c0 .5523-.4477 1-1 1s-1-.4477-1-1 .4477-1 1-1 1 .4477 1 1z"/><path d="m4 1.5c-1.38071 0-2.5 1.11929-2.5 2.5v16c0 1.3807 1.11929 2.5 2.5 2.5h16c1.3807 0 2.5-1.1193 2.5-2.5v-16c0-1.38071-1.1193-2.5-2.5-2.5zm-1.5 2.5c0-.82843.67157-1.5 1.5-1.5h16c.8284 0 1.5.67157 1.5 1.5v13.5h-19zm0 14.5v1.5c0 .8284.67157 1.5 1.5 1.5h16c.8284 0 1.5-.6716 1.5-1.5v-1.5z"/></g></svg>