<svg fill="none" height="512" viewBox="0 0 24 24" width="512" xmlns="http://www.w3.org/2000/svg"><g fill="rgb(0,0,0)"><path d="m12 2.5c-5.24671 0-9.5 4.25329-9.5 9.5 0 5.2467 4.25329 9.5 9.5 9.5.4848 0 .9609-.0363 1.4256-.1062.2731-.0411.5278.147.5688.4201.0411.273-.147.5277-.42.5688-.5139.0773-1.0396.1173-1.5744.1173-5.79899 0-10.5-4.701-10.5-10.5 0-5.79899 4.70101-10.5 10.5-10.5 5.799 0 10.5 4.70101 10.5 10.5 0 1.292-.2336 2.5305-.6612 3.675-.0967.2587-.3848.39-.6434.2934-.2587-.0967-.39-.3847-.2934-.6434.3865-1.0342.598-2.1543.598-3.325 0-5.24671-4.2533-9.5-9.5-9.5z"/><g clip-rule="evenodd" fill-rule="evenodd"><path d="m9.75365 8.5649c.15676-.08875.34915-.08633.50355.00635l5 3.00005c.1507.0903.2428.2531.2428.4287s-.0921.3384-.2428.4287l-5 3c-.1544.0927-.34679.0952-.50355.0064-.15675-.0888-.25365-.255-.25365-.4351v-6c0-.18014.0969-.34635.25365-.4351zm.74635 5.552 3.5282-2.1169-3.5282-2.11691z"/><path d="m20.3536 17.1156c-.7113-.7112-1.8055-.8062-2.619-.2848-.8135-.5214-1.9077-.4264-2.619.2848-.8208.8209-.8208 2.1517 0 2.9726l.0104.0102 2.2551 2.2552c.0938.0937.221.1464.3536.1464s.2598-.0527.3535-.1465l2.2654-2.2654c.8208-.8208.8208-2.1516 0-2.9725zm-4.5309.7071c.4303-.4303 1.128-.4303 1.5583 0 .0938.0938.221.1465.3536.1465s.2598-.0527.3535-.1465c.4304-.4303 1.1281-.4303 1.5584 0s.4303 1.128 0 1.5583l-1.9118 1.9119-1.9016-1.9016-.0032-.0032-.0072-.0071c-.4303-.4303-.4303-1.128 0-1.5583z"/></g></g></svg>