<svg fill="none" height="512" viewBox="0 0 24 24" width="512" xmlns="http://www.w3.org/2000/svg"><g clip-rule="evenodd" fill="rgb(0,0,0)" fill-rule="evenodd"><path d="m13.2236 1.55279c-.155-.0775-.3391-.06922-.4865.02189-.1474.0911-.2371.25203-.2371.42532v3.76756c-.2942-.17017-.6357-.26756-1-.26756-1.1046 0-2 .89543-2 2s.8954 2 2 2 2-.89543 2-2v-4.69098l1.2764.63819c.247.1235.5473.02339.6708-.2236s.0234-.54733-.2236-.67082zm-.7236 5.94721c0-.55228-.4477-1-1-1s-1 .44772-1 1 .4477 1 1 1 1-.44772 1-1z"/><path d="m10.5 13.5c0 .9066-.4021 1.7193-1.03779 2.2694.86319.3102 1.60659.8718 2.14189 1.5964.5343-.6633 1.235-1.1877 2.0389-1.5095-.6962-.5494-1.143-1.4007-1.143-2.3563 0-1.6569 1.3431-3 3-3s3 1.3431 3 3c0 .9066-.4021 1.7193-1.0378 2.2694 1.7712.6366 3.0378 2.3311 3.0378 4.3215v.1948c0 1.2229-.9914 2.2143-2.2143 2.2143h-5.7857c-.396 0-.7658-.1155-1.0765-.3143-.3326.1996-.7218.3143-1.1378.3143h-5.7857c-1.10457 0-2-.8954-2-2 0-2.1052 1.30103-3.9065 3.14289-4.6438-.69609-.5493-1.14289-1.4006-1.14289-2.3562 0-1.6569 1.34315-3 3-3s3 1.3431 3 3zm-5 0c0-1.1046.89543-2 2-2s2 .8954 2 2-.89543 2-2 2-2-.8954-2-2zm6.6725 7.9453c.1025.0355.2126.0547.3275.0547h5.7857c.6707 0 1.2143-.5437 1.2143-1.2143v-.1948c0-1.9832-1.6077-3.5909-3.5909-3.5909h-.4091c-1.3864 0-2.6083.7049-3.3267 1.7781-.009.0135-.0186.0264-.0287.0387.2289.5458.3554 1.1452.3554 1.7741v.1948c0 .4252-.1198.8223-.3275 1.1596zm-8.6725-.9453c0-2.2091 1.79086-4 4-4h.40909c1.9832 0 3.59091 1.6077 3.59091 3.5909v.1948c0 .6706-.5437 1.2143-1.2143 1.2143h-5.7857c-.55228 0-1-.4477-1-1zm10-7c0-1.1046.8954-2 2-2s2 .8954 2 2-.8954 2-2 2-2-.8954-2-2z"/></g></svg>