<svg fill="none" height="512" viewBox="0 0 24 24" width="512" xmlns="http://www.w3.org/2000/svg"><g clip-rule="evenodd" fill="rgb(0,0,0)" fill-rule="evenodd"><path d="m10.5 12c.3643 0 .7058.0974 1 .2676v-3.7676c0-.17329.0897-.33422.2371-.42532.1474-.09111.3315-.09939.4865-.02189l2 1c.247.12349.3471.42383.2236.67082s-.4238.34709-.6708.2236l-1.2764-.63819v4.69098c0 1.1046-.8954 2-2 2-1.10457 0-2-.8954-2-2s.89543-2 2-2zm-1 2c0-.5523.44771-1 1-1 .5523 0 1 .4477 1 1s-.4477 1-1 1c-.55229 0-1-.4477-1-1z"/><path d="m4.61797 9.014c-.03783-.00915-.07733-.014-.11797-.014h-2.5v-2c0-.27614-.22386-.5-.5-.5s-.5.22386-.5.5v10c0 .2761.22386.5.5.5s.5-.2239.5-.5v-2h2.5c.04064 0 .08014-.0049.11796-.014 1.15413 2.6563 3.80115 4.514 6.88204 4.514 4.1421 0 7.5-3.3579 7.5-7.5 0-4.14214-3.3579-7.5-7.5-7.5-3.08089 0-5.7279 1.85767-6.88203 4.514zm.38203 2.986c0-3.58985 2.91015-6.5 6.5-6.5 3.5899 0 6.5 2.91015 6.5 6.5 0 3.5899-2.9101 6.5-6.5 6.5-3.58985 0-6.5-2.9101-6.5-6.5zm-.73038-2c-.17574.6367-.26962 1.3074-.26962 2s.09388 1.3633.26962 2h-2.26962v-4z"/></g></svg>