<svg fill="none" height="512" viewBox="0 0 24 24" width="512" xmlns="http://www.w3.org/2000/svg"><g clip-rule="evenodd" fill="rgb(0,0,0)" fill-rule="evenodd"><path d="m13 12.2676c-.2942-.1702-.6357-.2676-1-.2676-1.1046 0-2 .8954-2 2s.8954 2 2 2 2-.8954 2-2v-4.69098l1.2764.63819c.247.12349.5473.02339.6708-.2236s.0234-.54733-.2236-.67082l-2-1c-.155-.0775-.3391-.06922-.4865.02189-.1474.0911-.2371.25203-.2371.42532zm-1 .7324c-.5523 0-1 .4477-1 1s.4477 1 1 1 1-.4477 1-1-.4477-1-1-1z"/><path d="m5.5 5.5c-.27614 0-.5.22386-.5.5v3h-3v-2c0-.27614-.22386-.5-.5-.5s-.5.22386-.5.5v10c0 .2761.22386.5.5.5s.5-.2239.5-.5v-2h3v3c0 .2761.22386.5.5.5h15c.2761 0 .5-.2239.5-.5v-12c0-.27614-.2239-.5-.5-.5zm-3.5 8.5h3v-4h-3zm4 3.5v-11h14v11z"/></g></svg>