<svg fill="none" height="512" viewBox="0 0 24 24" width="512" xmlns="http://www.w3.org/2000/svg"><g fill="rgb(0,0,0)"><path d="m7.30434 2.5c-.7892 0-2.12092.05215-3.12961.26825-.75575.16191-1.19061.81816-1.27817 1.47718l-.39221 2.95187c-.03637.27374.15605.52513.42979.5615s.52513-.15605.5615-.42979l.39221-2.95187c.04681-.35232.25453-.57927.49637-.63108.90252-.19336 2.14865-.24606 2.92012-.24606 3.42636 0 6.19566 2.74972 6.19566 6.13158 0 2.08312-1.0494 3.92532-2.6583 5.03472-.1414.0975-.2229.2608-.2158.4324.003.0719.0045.1443.0045.2171 0 2.8586-2.34106 5.1842-5.2391 5.1842-.0801 0-.20608.0028-.34876.0062-.63231.015-1.1189-.4317-1.17516-1.098l-.36916-4.3724c-.02323-.2751-.26513-.4793-.54029-.4561s-.47939.2651-.45616.5403l.36915 4.3723c.09767 1.1568.99852 2.042 2.19533 2.0136.14686-.0035.25943-.0059.32505-.0059 3.43618 0 6.2309-2.7561 6.2391-6.1691 1.741-1.3001 2.8696-3.3683 2.8696-5.69932 0-3.94319-3.2261-7.13158-7.19566-7.13158z"/><path d="m6 5.5c-.27614 0-.5.22386-.5.5v6c0 .2761.22386.5.5.5s.5-.2239.5-.5v-5.45942c1.66168.27144 3 1.87464 3 3.90382 0 1.3106-.56626 2.459-1.42003 3.1718-.21199.1769-.24038.4922-.06341.7042.17696.212.49227.2404.70425.0634 1.0889-.909 1.77919-2.3422 1.77919-3.9394 0-2.67984-1.96647-4.9444-4.5-4.9444z"/><path d="m15.7084 15.2322c-.2243-.1611-.2756-.4735-.1145-.6978.5299-.7381.8419-1.6426.8419-2.6214s-.312-1.8833-.8419-2.6214c-.1611-.22431-.1098-.53671.1145-.69777s.5367-.10978.6978.11453c.6479.90243 1.0296 2.00974 1.0296 3.20464s-.3817 2.3022-1.0296 3.2046c-.1611.2243-.4735.2756-.6978.1146z"/><path d="m17.5812 17.7269c-.1509.2313-.0856.5411.1457.6919s.5411.0855.6919-.1458c1.1765-1.8043 1.8601-3.9596 1.8601-6.2731 0-2.31342-.6836-4.46873-1.8601-6.27305-.1508-.23131-.4606-.29657-.6919-.14574-.2313.15082-.2966.4606-.1457.69192 1.0737 1.6468 1.6977 3.61322 1.6977 5.72687 0 2.1137-.624 4.0802-1.6977 5.727z"/></g></svg>