<svg fill="none" height="512" viewBox="0 0 24 24" width="512" xmlns="http://www.w3.org/2000/svg"><path clip-rule="evenodd" d="m12.6924 7.79284 5.3132-5.31318c.9888-.98883 2.592-.98883 3.5808 0 .9889.98882.9889 2.59202 0 3.58085l-5.3131 5.31319.5153.5154c.1953.1952.1953.5118 0 .7071l-6.3737 6.3736c-1.34061 1.3407-3.46922 1.4132-4.89507.2174l-2.66628 2.6663c-.19526.1953-.51184.1953-.7071 0-.19527-.1952-.19527-.5118 0-.7071l2.70111-2.7011c-.96332-1.4126-.81832-3.3546.43499-4.6079l6.37365-6.37364c.1953-.19527.5119-.19527.7071 0zm5.8204-.07293-2.8941 2.89419-2.1667-2.16666 2.8942-2.89417zm.7071-.70711 1.6594-1.6594c.5983-.5983.5983-1.56834 0-2.16664s-1.5683-.5983-2.1666 0l-1.6594 1.6594zm-13.23025 7.5317 6.02015-6.02008 3.7182 3.71818-6.02016 6.0201c-1.02675 1.0268-2.69144 1.0268-3.71819 0-1.02675-1.0267-1.02675-2.6914 0-3.7182z" fill="rgb(0,0,0)" fill-rule="evenodd"/></svg>