<svg fill="none" height="512" viewBox="0 0 24 24" width="512" xmlns="http://www.w3.org/2000/svg"><path clip-rule="evenodd" d="m6.5 4.5h7.05c.2316 1.14112 1.2405 2 2.45 2h4c.2761 0 .5-.22386.5-.5v-1.5h1.5c.2761 0 .5-.22386.5-.5s-.2239-.5-.5-.5h-1.5v-1.5c0-.27614-.2239-.5-.5-.5h-4c-1.2095 0-2.2184.85888-2.45 2h-7.05c-2.48528 0-4.5 2.01472-4.5 4.5 0 2.4853 2.01472 4.5 4.5 4.5h11c1.933 0 3.5 1.567 3.5 3.5s-1.567 3.5-3.5 3.5h-7.05c-.2316-1.1411-1.24052-2-2.45-2h-4c-.27614 0-.5.2239-.5.5v1.5h-1.5c-.27614 0-.5.2239-.5.5s.22386.5.5.5h1.5v1.5c0 .2761.22386.5.5.5h4c1.20948 0 2.2184-.8589 2.45-2h7.05c2.4853 0 4.5-2.0147 4.5-4.5s-2.0147-4.5-4.5-4.5h-11c-1.933 0-3.5-1.567-3.5-3.5s1.567-3.5 3.5-3.5zm-2 15.5003v1.4997h3.5c.82843 0 1.5-.6716 1.5-1.5s-.67157-1.5-1.5-1.5h-3.5zm15-17.5003v3h-3.5c-.8284 0-1.5-.67157-1.5-1.5s.6716-1.5 1.5-1.5z" fill="rgb(0,0,0)" fill-rule="evenodd"/></svg>