<svg fill="none" height="512" viewBox="0 0 24 24" width="512" xmlns="http://www.w3.org/2000/svg"><g fill="rgb(0,0,0)"><path clip-rule="evenodd" d="m5.79693 1.54309c.12928-.05745.27686-.05745.40614 0l2 .88889c.18056.08025.29693.25931.29693.45691v6.61111h.5c.27614 0 .5.22386.5.5v5c0 1.933-1.567 3.5-3.5 3.5s-3.5-1.567-3.5-3.5v-5c0-.27614.22386-.5.5-.5h.5v-6.61111c0-.1976.11637-.37666.29693-.45691zm-1.29693 3.95691v4h3v-4zm3-1h-3v-1.28617l1.5-.66667 1.5.66667zm-4 6h5v4.5c0 1.3807-1.11929 2.5-2.5 2.5s-2.5-1.1193-2.5-2.5z" fill-rule="evenodd"/><path d="m6 18.5h.5c0 1.6569 1.34315 3 3 3 1.6569 0 3-1.3431 3-3v-5.5c0-2.2091 1.7909-4 4-4s4 1.7909 4 4v3.5c0 .2761-.2239.5-.5.5s-.5-.2239-.5-.5v-3.5c0-1.6569-1.3431-3-3-3s-3 1.3431-3 3v5.5c0 2.2091-1.7909 4-4 4-2.20914 0-4-1.7909-4-4z"/></g></svg>