<svg fill="none" height="512" viewBox="0 0 24 24" width="512" xmlns="http://www.w3.org/2000/svg"><path clip-rule="evenodd" d="m6.5 1.5c0-.27614-.22386-.5-.5-.5s-.5.22386-.5.5v5h-3.5c-.27614 0-.5.22386-.5.5v6c0 2.3163 1.75002 4.2238 4 4.4725v.5275c0 2.4853 2.01472 4.5 4.5 4.5 2.4853 0 4.5-2.0147 4.5-4.5v-6c0-1.933 1.567-3.5 3.5-3.5s3.5 1.567 3.5 3.5v6c0 .2761.2239.5.5.5s.5-.2239.5-.5v-6c0-2.48528-2.0147-4.5-4.5-4.5s-4.5 2.01472-4.5 4.5v6c0 1.933-1.567 3.5-3.5 3.5s-3.5-1.567-3.5-3.5v-.5275c2.24998-.2487 4-2.1562 4-4.4725v-6c0-.27614-.2239-.5-.5-.5h-3.5zm-4 6v5.5c0 1.933 1.567 3.5 3.5 3.5s3.5-1.567 3.5-3.5v-5.5z" fill="rgb(0,0,0)" fill-rule="evenodd"/></svg>