<svg fill="none" height="512" viewBox="0 0 24 24" width="512" xmlns="http://www.w3.org/2000/svg"><g clip-rule="evenodd" fill="rgb(0,0,0)" fill-rule="evenodd"><path d="m12 4c-1.3807 0-2.5 1.11929-2.5 2.5s1.1193 2.5 2.5 2.5 2.5-1.11929 2.5-2.5-1.1193-2.5-2.5-2.5zm-1.5 2.5c0-.82843.6716-1.5 1.5-1.5s1.5.67157 1.5 1.5-.6716 1.5-1.5 1.5-1.5-.67157-1.5-1.5z"/><path d="m7.5 9.66308c.99537 1.41352 2.6398 2.33692 4.5 2.33692s3.5046-.9234 4.5-2.33692v4.92232c-.5826.2059-1 .7615-1 1.4146v4c0 .2761.2239.5.5.5h.5v1.5c0 .2761.2239.5.5.5s.5-.2239.5-.5v-1.5h.5c.2761 0 .5-.2239.5-.5v-4c0-.6531-.4174-1.2087-1-1.4146v-8.0854c0-3.03757-2.4624-5.5-5.5-5.5-3.03757 0-5.5 2.46243-5.5 5.5v8.0854c-.5826.2059-1 .7615-1 1.4146v4c0 .2761.22386.5.5.5h.5v1.5c0 .2761.22386.5.5.5s.5-.2239.5-.5v-1.5h.5c.27614 0 .5-.2239.5-.5v-4c0-.6531-.4174-1.2087-1-1.4146zm0-3.16308c0-2.48528 2.01472-4.5 4.5-4.5 2.4853 0 4.5 2.01472 4.5 4.5s-2.0147 4.5-4.5 4.5c-2.48528 0-4.5-2.01472-4.5-4.5zm0 13h-1v-3.5c0-.2761.22386-.5.5-.5s.5.2239.5.5zm10 0v-3.5c0-.2761-.2239-.5-.5-.5s-.5.2239-.5.5v3.5z"/></g></svg>