<svg fill="none" height="512" viewBox="0 0 24 24" width="512" xmlns="http://www.w3.org/2000/svg"><path clip-rule="evenodd" d="m12 1.5c-2.48528 0-4.5 2.01472-4.5 4.5v2.5h-3.5c-.27614 0-.5.22386-.5.5v2c0 4.5266 3.53831 8.2267 8 8.4855v2.0145h-1.5c-.27614 0-.5.2239-.5.5s.22386.5.5.5h4c.2761 0 .5-.2239.5-.5s-.2239-.5-.5-.5h-1.5v-2.0145c4.4617-.2588 8-3.9589 8-8.4855v-2c0-.27614-.2239-.5-.5-.5h-3.5v-2.5c0-2.48528-2.0147-4.5-4.5-4.5zm7.5 9.5c0 4.1421-3.3579 7.5-7.5 7.5-4.14214 0-7.5-3.3579-7.5-7.5v-1.5h3v2.5c0 2.4853 2.01472 4.5 4.5 4.5 2.4853 0 4.5-2.0147 4.5-4.5v-2.5h3zm-11 1c0 1.933 1.567 3.5 3.5 3.5s3.5-1.567 3.5-3.5v-6c0-1.933-1.567-3.5-3.5-3.5s-3.5 1.567-3.5 3.5z" fill="rgb(0,0,0)" fill-rule="evenodd"/></svg>