<svg fill="none" height="512" viewBox="0 0 24 24" width="512" xmlns="http://www.w3.org/2000/svg"><g fill="rgb(0,0,0)"><path clip-rule="evenodd" d="m7.5 6c0-2.48528 2.01472-4.5 4.5-4.5 2.4853 0 4.5 2.01472 4.5 4.5v6c0 2.4853-2.0147 4.5-4.5 4.5-2.48528 0-4.5-2.0147-4.5-4.5zm4.5-3.5c-1.933 0-3.5 1.567-3.5 3.5v6c0 1.933 1.567 3.5 3.5 3.5s3.5-1.567 3.5-3.5v-6c0-1.933-1.567-3.5-3.5-3.5z" fill-rule="evenodd"/><path d="m4 10.5c.27614 0 .5.2239.5.5v1c0 4.1421 3.35786 7.5 7.5 7.5 4.1421 0 7.5-3.3579 7.5-7.5v-1c0-.2761.2239-.5.5-.5s.5.2239.5.5v1c0 4.5266-3.5383 8.2267-8 8.4855v2.0145c0 .2761-.2239.5-.5.5s-.5-.2239-.5-.5v-2.0145c-4.46169-.2588-8-3.9589-8-8.4855v-1c0-.2761.22386-.5.5-.5z"/></g></svg>