<svg fill="none" height="512" viewBox="0 0 24 24" width="512" xmlns="http://www.w3.org/2000/svg"><path clip-rule="evenodd" d="m17.4959 11.1319c1.3042.1376 2.6571-.2935 3.6567-1.29306 1.7573-1.75736 1.7573-4.6066 0-6.36396-1.7574-1.75736-4.6066-1.75736-6.364 0-.9996.99959-1.4306 2.35244-1.293 3.65668l-.8283-.82825c-.1953-.19527-.5118-.19527-.7071 0l-4.24265 4.24259c-.19526.1953-.19526.5119 0 .7072l1.06066 1.0606-5.3033 5.3033c-.97631.9763-.97631 2.5592 0 3.5355.97631.9764 2.55922.9764 3.53553 0l5.30326-5.3033 1.0607 1.0607c.1953.1953.5118.1953.7071 0l4.2427-4.2426c.1952-.1953.1952-.5119 0-.7071zm-2.0002-6.94991c1.3669-1.36684 3.5829-1.36684 4.9498 0 1.3668 1.36683 1.3668 3.58291 0 4.94974-1.3669 1.36687-3.5829 1.36687-4.9498 0-1.3668-1.36683-1.3668-3.58291 0-4.94974zm-3.182 3.18198-3.53549 3.53553 4.94979 4.9497 3.5355-3.5355zm-2.82838 5.65683 2.12128 2.1213-5.30326 5.3033c-.58579.5858-1.53554.5858-2.12132 0-.58579-.5857-.58579-1.5355 0-2.1213z" fill="rgb(0,0,0)" fill-rule="evenodd"/></svg>