<svg fill="none" height="512" viewBox="0 0 24 24" width="512" xmlns="http://www.w3.org/2000/svg"><g fill="rgb(0,0,0)"><path d="m12.0208 12.3743c.1953.1953.1953.5119 0 .7072l-1.7678 1.7677c-.1952.1953-.51181.1953-.70707 0-.19526-.1952-.19526-.5118 0-.7071l1.76777-1.7678c.1953-.1952.5118-.1952.7071 0z"/><path clip-rule="evenodd" d="m11.9016 6.14818c.184-1.08624.6951-2.12788 1.5334-2.96622 2.1479-2.14789 5.6303-2.14789 7.7782 0 2.1479 2.14788 2.1479 5.63029 0 7.77814-.8383.8384-1.88 1.3495-2.9662 1.5334l-8.49198 7.2102c-1.28424 1.0904-3.14328 1.1011-4.43505.0786l-1.43089 1.4309c-.19527.1952-.51185.1952-.70711 0-.19526-.1953-.19526-.5119 0-.7071l1.43089-1.4309c-1.02246-1.2918-1.01177-3.1508.07862-4.4351zm2.2405-2.25912c1.7574-1.75735 4.6066-1.75735 6.364 0 1.7573 1.75736 1.7573 4.60661 0 6.36394-.712.7121-1.6033 1.1356-2.5286 1.2706-.0114.0013-.0228.0029-.0341.0049-1.3482.1863-2.7647-.2389-3.8013-1.2755-1.0366-1.03657-1.4617-2.45306-1.2754-3.80128.002-.01131.0036-.02267.0048-.03405.135-.92528.5586-1.81657 1.2706-2.52861zm-8.48526 14.84924c-.00009-.0001.0001.0001 0 0l.0651.0651c.92054.9205 2.39346.9806 3.38584.138l7.55022-6.4106c-1.1781-.1429-2.3188-.6665-3.223-1.5707s-1.4277-2.04488-1.5707-3.22296l-6.41052 7.55026c-.8426.9924-.78258 2.4653.13797 3.3858z" fill-rule="evenodd"/></g></svg>