<svg fill="none" height="512" viewBox="0 0 24 24" width="512" xmlns="http://www.w3.org/2000/svg"><g clip-rule="evenodd" fill="rgb(0,0,0)" fill-rule="evenodd"><path d="m16.5 9c0-.15867-.0753-.30792-.2029-.40219-.1277-.09427-.2925-.12236-.4441-.0757l-6.00004 1.84619c-.2098.0645-.35296.2584-.35296.4779v3.9214c-.29417-.1702-.63571-.2676-1-.2676-1.10457 0-2 .8954-2 2s.89543 2 2 2 2-.8954 2-2v-5.2845l5-1.53852v4.09062c-.2942-.1702-.6357-.2676-1-.2676-1.1046 0-2 .8954-2 2s.8954 2 2 2 2-.8954 2-2zm-1 6.5c0-.5523-.4477-1-1-1s-1 .4477-1 1 .4477 1 1 1 1-.4477 1-1zm-6 1c0-.5523-.44772-1-1-1s-1 .4477-1 1 .44772 1 1 1 1-.4477 1-1z"/><path d="m5.1579 1.5c-.15302 0-.29762.07007-.39244.19018l-3.15506 3.99641c-.06906.08574-.1104.19475-.1104.31341v16c0 .2761.22386.5.5.5h20c.2761 0 .5-.2239.5-.5v-15.99777c0-.00595-.0001-.01191-.0002-.01786-.003-.09799-.0343-.18888-.0858-.26484l-2.6279-3.99434c-.0924-.14056-.2494-.22519-.4177-.22519zm.2423 1h6.0998v3h-8.46822zm7.0998 0v3h8.5726l-1.9737-3zm-10 4h19v15h-19z"/></g></svg>