<svg fill="none" height="512" viewBox="0 0 24 24" width="512" xmlns="http://www.w3.org/2000/svg"><g fill="rgb(0,0,0)"><path d="m6 10.5c0-.2761-.22386-.5-.5-.5s-.5.2239-.5.5v3c0 .2761.22386.5.5.5s.5-.2239.5-.5z"/><path clip-rule="evenodd" d="m5.5 1.5c-.69171 0-1.27972.4017-1.74757.96709-.47049.56856-.87183 1.36122-1.19923 2.29667-.65643 1.87551-1.0532 4.43393-1.0532 7.23624 0 2.8023.39677 5.3607 1.0532 7.2362.3274.9355.72874 1.7281 1.19923 2.2967.46785.5654 1.05586.9671 1.74757.9671s1.27972-.4017 1.74757-.9671c.47049-.5686.87183-1.3612 1.19923-2.2967.65643-1.8755 1.0532-4.4339 1.0532-7.2362 0-2.80231-.39677-5.36073-1.0532-7.23624-.3274-.93545-.72874-1.72811-1.19923-2.29667-.46785-.56539-1.05586-.96709-1.74757-.96709zm-3 10.5c0-2.72053.38673-5.16212.99706-6.90589.30596-.8742.65881-1.54601 1.0258-1.9895.36961-.44667.70235-.60461.97714-.60461s.60753.15794.97714.60461c.36699.44349.71984 1.1153 1.0258 1.9895.61033 1.74377.99706 4.18536.99706 6.90589 0 2.7205-.38673 5.1621-.99706 6.9059-.30596.8742-.65881 1.546-1.0258 1.9895-.36961.4467-.70235.6046-.97714.6046s-.60753-.1579-.97714-.6046c-.36699-.4435-.71984-1.1153-1.0258-1.9895-.61033-1.7438-.99706-4.1854-.99706-6.9059z" fill-rule="evenodd"/><path d="m10.4783 4.96097c.2576-.8457.5517-1.49229.8544-1.91642.3117-.4368.5613-.54455.7184-.54455.1608 0 .418.11326.7377.57181.3096.44406.6086 1.11924.8679 1.99855.5167 1.75209.8433 4.20223.8433 6.92964 0 2.7274-.3266 5.1776-.8433 6.9296-.2593.8794-.5583 1.5545-.8679 1.9986-.3197.4585-.5769.5718-.7377.5718-.1571 0-.4067-.1077-.7184-.5446-.3027-.4241-.5968-1.0707-.8544-1.9164-.0804-.2641-.3598-.4131-.62396-.3326-.26417.0804-.4131.3598-.33265.624.27319.897.60601 1.6581.99701 2.2059.3819.5352.8924.9637 1.5324.9637.6535 0 1.1721-.4464 1.558-.9999.396-.568.7324-1.3573 1.0068-2.2876.5506-1.8672.8841-4.4171.8841-7.2125 0-2.79544-.3335-5.34529-.8841-7.21249-.2744-.93033-.6108-1.71963-1.0068-2.28762-.3859-.55351-.9045-.99989-1.558-.99989-.64 0-1.1505.42853-1.5324.96368-.391.54784-.72382 1.3089-.99701 2.20596-.08045.26416.06848.54353.33264.62397.26417.08045.54357-.06848.62397-.33264z"/><path d="m17.4906 3.07934c-.3631.42395-.7139 1.06731-1.021 1.90759-.0948.25936-.3819.39278-.6412.298-.2594-.09479-.3928-.38188-.298-.64125.3298-.90247.7313-1.66677 1.2006-2.21478.4677-.54614 1.0503-.9289 1.7303-.9289.6948 0 1.2876.39919 1.7609.96501.4757.56852.8816 1.36133 1.2127 2.29712.6639 1.87606 1.0651 4.43507 1.0651 7.23787s-.4012 5.3618-1.0651 7.2379c-.3311.9358-.737 1.7286-1.2127 2.2971-.4733.5658-1.0661.965-1.7609.965-.68 0-1.2626-.3828-1.7303-.9289-.4693-.548-.8708-1.3123-1.2006-2.2148-.0948-.2593.0386-.5464.298-.6412.2593-.0948.5464.0386.6412.298.3071.8403.6579 1.4836 1.021 1.9076.3646.4258.6942.5793.9707.5793.2825 0 .6206-.1604.994-.6067.371-.4435.7277-1.1152 1.0369-1.989.6169-1.7433 1.0078-4.1843 1.0078-6.9043 0-2.72004-.3909-5.16104-1.0078-6.90427-.3092-.87385-.6659-1.54551-1.0369-1.98904-.3734-.44624-.7115-.60669-.994-.60669-.2765 0-.6061.15351-.9707.57934z"/><path d="m11.5 10c.2761 0 .5.2239.5.5v3c0 .2761-.2239.5-.5.5s-.5-.2239-.5-.5v-3c0-.2761.2239-.5.5-.5z"/><path d="m19 10.5c0-.2761-.2239-.5-.5-.5s-.5.2239-.5.5v3c0 .2761.2239.5.5.5s.5-.2239.5-.5z"/></g></svg>