<svg fill="none" height="512" viewBox="0 0 24 24" width="512" xmlns="http://www.w3.org/2000/svg"><g fill="rgb(0,0,0)"><path d="m2.5 12c0 5.2467 4.25329 9.5 9.5 9.5.2761 0 .5.2239.5.5s-.2239.5-.5.5c-5.79899 0-10.5-4.701-10.5-10.5 0-5.79899 4.70101-10.5 10.5-10.5 5.799 0 10.5 4.70101 10.5 10.5 0 .2761-.2239.5-.5.5s-.5-.2239-.5-.5c0-5.24671-4.2533-9.5-9.5-9.5-5.24671 0-9.5 4.25329-9.5 9.5z"/><path clip-rule="evenodd" d="m12.5 7.53544c1.6961.24262 3 1.70132 3 3.46456 0 .2761.2239.5.5.5s.5-.2239.5-.5c0-2.48528-2.0147-4.5-4.5-4.5-.2761 0-.5.22386-.5.5v4.9998c-.4178-.3138-.9372-.4998-1.5-.4998-1.38071 0-2.5 1.1193-2.5 2.5s1.11929 2.5 2.5 2.5c1.3807 0 2.5-1.1193 2.5-2.5zm-2.5 4.96456c.8284 0 1.5.6716 1.5 1.5s-.6716 1.5-1.5 1.5c-.82843 0-1.5-.6716-1.5-1.5s.67157-1.5 1.5-1.5z" fill-rule="evenodd"/><path d="m16.6678 19.3763c.2064-.1835.5224-.1649.7059.0415l1.1263 1.2671v-4.6849c0-.2761.2239-.5.5-.5s.5.2239.5.5v4.6849l1.1263-1.2671c.1835-.2064.4995-.225.7059-.0415s.225.4995.0415.7059l-2 2.25c-.0949.1067-.2309.1678-.3737.1678s-.2788-.0611-.3737-.1678l-2-2.25c-.1835-.2064-.1649-.5224.0415-.7059z"/></g></svg>