<svg fill="none" height="512" viewBox="0 0 24 24" width="512" xmlns="http://www.w3.org/2000/svg"><g clip-rule="evenodd" fill="rgb(0,0,0)" fill-rule="evenodd"><path d="m11.5 15.7676c-.2942-.1702-.6357-.2676-1-.2676-1.10457 0-2 .8954-2 2s.89543 2 2 2c1.1046 0 2-.8954 2-2v-5.7615l2.3143.9257c.2564.1026.5474-.0221.6499-.2785.1026-.2564-.0221-.5474-.2785-.6499l-3-1.2c-.1541-.0617-.3286-.0428-.466.0502s-.2197.2481-.2197.414zm-1 .7324c-.55229 0-1 .4477-1 1s.44771 1 1 1c.5523 0 1-.4477 1-1s-.4477-1-1-1z"/><path d="m18.5 2c0-.27614-.2239-.5-.5-.5s-.5.22386-.5.5v1.5h-11v-1.5c0-.27614-.22386-.5-.5-.5s-.5.22386-.5.5v1.5h-1.5c-1.38071 0-2.5 1.11929-2.5 2.5v14c0 1.3807 1.11929 2.5 2.5 2.5h16c1.3807 0 2.5-1.1193 2.5-2.5v-14c0-1.38071-1.1193-2.5-2.5-2.5h-1.5zm-14.5 2.5c-.82843 0-1.5.67157-1.5 1.5v1.5h19v-1.5c0-.82843-.6716-1.5-1.5-1.5zm-1.5 15.5v-11.5h19v11.5c0 .8284-.6716 1.5-1.5 1.5h-16c-.82843 0-1.5-.6716-1.5-1.5z"/></g></svg>