<svg fill="none" height="512" viewBox="0 0 24 24" width="512" xmlns="http://www.w3.org/2000/svg"><g clip-rule="evenodd" fill="rgb(0,0,0)" fill-rule="evenodd"><path d="m11.5 13.7676c-.2942-.1702-.6357-.2676-1-.2676-1.10457 0-2 .8954-2 2s.89543 2 2 2c1.1046 0 2-.8954 2-2v-5.76148l2.3143.92568c.2564.1026.5474-.0221.6499-.2785.1026-.2564-.0221-.54738-.2785-.64994l-3-1.2c-.1541-.06161-.3286-.04281-.466.05021-.1374.09301-.2197.24812-.2197.41403zm-1 .7324c-.55228 0-1 .4477-1 1s.44772 1 1 1c.5523 0 1-.4477 1-1s-.4477-1-1-1z"/><path d="m20.4852 7.87879c-.0472-.43161-.2062-.84519-.4634-1.19885l-3.0184-4.15037c-.4705-.64686-1.222-1.02957-2.0218-1.02957h-8.9816c-1.38071 0-2.5 1.11929-2.5 2.5v16c0 1.3807 1.11929 2.5 2.5 2.5h12c1.3807 0 2.5-1.1193 2.5-2.5v-11.84963c0-.03463-.0007-.0692-.0021-.10369.0014-.01537.0021-.03094.0021-.04668 0-.0418-.0051-.0824-.0148-.12121zm-15.9852-3.87879c0-.82843.67157-1.5 1.5-1.5h8.9816c.1792 0 .3545.03205.5184.09244v5.40756c0 .27614.2239.5.5.5h3.5v11.5c0 .8284-.6716 1.5-1.5 1.5h-12c-.82843 0-1.5-.6716-1.5-1.5zm14.8517 3.5h-2.8517v-3.96241l2.7131 3.73052c.0533.07335.0996.15099.1386.23189z"/></g></svg>