<svg fill="none" height="512" viewBox="0 0 24 24" width="512" xmlns="http://www.w3.org/2000/svg"><g fill="rgb(0,0,0)"><path d="m9.5 12c0-.2761-.22386-.5-.5-.5s-.5.2239-.5.5v6c0 .2761.22386.5.5.5s.5-.2239.5-.5z"/><path d="m12 10.5c.2761 0 .5.2239.5.5v8c0 .2761-.2239.5-.5.5s-.5-.2239-.5-.5v-8c0-.2761.2239-.5.5-.5z"/><path d="m15.5 12c0-.2761-.2239-.5-.5-.5s-.5.2239-.5.5v6c0 .2761.2239.5.5.5s.5-.2239.5-.5z"/><path clip-rule="evenodd" d="m20.0218 6.67994c.2572.35366.4162.76724.4634 1.19885.0097.03881.0148.07941.0148.12121 0 .01574-.0007.03131-.0021.04668.0014.03449.0021.06906.0021.10369v11.84963c0 1.3807-1.1193 2.5-2.5 2.5h-12c-1.38071 0-2.5-1.1193-2.5-2.5v-16c0-1.38071 1.11929-2.5 2.5-2.5h8.9816c.7998 0 1.5513.38271 2.0218 1.02957zm-14.0218-4.17994c-.82843 0-1.5.67157-1.5 1.5v16c0 .8284.67157 1.5 1.5 1.5h12c.8284 0 1.5-.6716 1.5-1.5v-11.5h-3.5c-.2761 0-.5-.22386-.5-.5v-5.40756c-.1639-.06039-.3392-.09244-.5184-.09244zm10.5 5h2.8517c-.039-.0809-.0853-.15854-.1386-.23189l-2.7131-3.73052z" fill-rule="evenodd"/></g></svg>