<svg fill="none" height="512" viewBox="0 0 24 24" width="512" xmlns="http://www.w3.org/2000/svg"><g clip-rule="evenodd" fill="rgb(0,0,0)" fill-rule="evenodd"><path d="m11.5 15.7676c-.2942-.1702-.6357-.2676-1-.2676-1.10457 0-2 .8954-2 2s.89543 2 2 2c1.1046 0 2-.8954 2-2v-5.7615l2.3143.9257c.2564.1026.5474-.0221.6499-.2785.1026-.2564-.0221-.5474-.2785-.6499l-3-1.2c-.1541-.0617-.3286-.0428-.466.0502s-.2197.2481-.2197.414zm-1 .7324c-.55229 0-1 .4477-1 1s.44771 1 1 1c.5523 0 1-.4477 1-1s-.4477-1-1-1z"/><path d="m1.5 5.5c0-1.38071 1.11929-2.5 2.5-2.5h1.6825c.65495 0 1.28374.25702 1.75117.71579l2.2707 2.22865h10.29563c1.429 0 2.5 1.26964 2.5 2.72223v11.11113c0 1.4526-1.071 2.7222-2.5 2.7222h-16c-1.42896 0-2.5-1.2696-2.5-2.7222zm2.5-1.5c-.82843 0-1.5.67157-1.5 1.5v14.2778c0 1.002.71982 1.7222 1.5 1.7222h16c.7802 0 1.5-.7202 1.5-1.7222v-11.11113c0-1.00202-.7198-1.72223-1.5-1.72223h-10.5c-.13099 0-.25675-.0514-.35023-.14315l-2.41657-2.37182c-.28045-.27526-.65773-.42947-1.0507-.42947z"/></g></svg>