<svg fill="none" height="512" viewBox="0 0 24 24" width="512" xmlns="http://www.w3.org/2000/svg"><g clip-rule="evenodd" fill="rgb(0,0,0)" fill-rule="evenodd"><path d="m8.5 17.5c0-1.1046.89543-2 2-2 .3643 0 .7058.0974 1 .2676v-3.7676c0-.2761.2239-.5.5-.5h3c.2761 0 .5.2239.5.5s-.2239.5-.5.5h-2.5v4.5c0 .0579-.0098.1134-.0279.1651.0183.1089.0279.2208.0279.3349 0 1.1046-.8954 2-2 2-1.10457 0-2-.8954-2-2zm2-1c-.55229 0-1 .4477-1 1s.44771 1 1 1c.5523 0 1-.4477 1-1s-.4477-1-1-1z"/><path d="m4 3c-1.38071 0-2.5 1.11929-2.5 2.5v14.2778c0 1.4526 1.07104 2.7222 2.5 2.7222h16c1.429 0 2.5-1.2696 2.5-2.7222v-11.11113c0-1.45259-1.071-2.72223-2.5-2.72223h-8.1574l-2.9809-2.39373c-.44386-.35643-.99607-.55071-1.56533-.55071zm-1.5 2.5c0-.82843.67157-1.5 1.5-1.5h3.29637c.34155 0 .67288.11657.9392.33043l3.11803 2.50387c.0888.07129.1992.11014.3131.11014h8.3333c.7802 0 1.5.72021 1.5 1.72223v.33333h-19zm0 4.5v9.7778c0 1.002.71982 1.7222 1.5 1.7222h16c.7802 0 1.5-.7202 1.5-1.7222v-9.7778z"/></g></svg>