<svg fill="none" height="512" viewBox="0 0 24 24" width="512" xmlns="http://www.w3.org/2000/svg"><g fill="rgb(0,0,0)"><path clip-rule="evenodd" d="m8.5 16.5c0-1.1046.89543-2 2-2 .3643 0 .7058.0974 1 .2676v-3.7676c0-.2761.2239-.5.5-.5h3c.2761 0 .5.2239.5.5s-.2239.5-.5.5h-2.5v4.5c0 .0579-.0098.1134-.0279.1651.0183.1089.0279.2208.0279.3349 0 1.1046-.8954 2-2 2-1.10457 0-2-.8954-2-2zm2-1c-.55229 0-1 .4477-1 1s.44771 1 1 1c.5523 0 1-.4477 1-1s-.4477-1-1-1z" fill-rule="evenodd"/><path clip-rule="evenodd" d="m4 3c-1.38071 0-2.5 1.11929-2.5 2.5v14.2778c0 1.4526 1.07104 2.7222 2.5 2.7222h16c1.429 0 2.5-1.2696 2.5-2.7222v-11.11113c0-1.45259-1.071-2.72223-2.5-2.72223h-10.29563l-2.2707-2.22865c-.46743-.45877-1.09622-.71579-1.75117-.71579zm-1.5 2.5c0-.82843.67157-1.5 1.5-1.5h1.6825c.39297 0 .77025.15421 1.0507.42947l2.41657 2.37182c.09348.09175.21924.14315.35023.14315h10.5c.7802 0 1.5.72021 1.5 1.72223v11.11113c0 1.002-.7198 1.7222-1.5 1.7222h-16c-.78018 0-1.5-.7202-1.5-1.7222z" fill-rule="evenodd"/><path d="m10 3c-.27614 0-.5.22386-.5.5s.22386.5.5.5h10c.2761 0 .5-.22386.5-.5s-.2239-.5-.5-.5z"/></g></svg>