<svg fill="none" height="512" viewBox="0 0 24 24" width="512" xmlns="http://www.w3.org/2000/svg"><g clip-rule="evenodd" fill="rgb(0,0,0)" fill-rule="evenodd"><path d="m10.2572 10.5713c-.1544-.0927-.34679-.0952-.50355-.0064-.15675.0888-.25365.255-.25365.4351v6c0 .1801.0969.3463.25365.4351.15676.0888.34915.0863.50355-.0064l5-3c.1507-.0903.2428-.2531.2428-.4287s-.0921-.3384-.2428-.4287zm3.771 3.4287-3.5282 2.1169v-4.2338z"/><path d="m3.5 4c0-1.38071 1.11929-2.5 2.5-2.5h14c.2761 0 .5.22386.5.5s-.2239.5-.5.5h-14c-.82843 0-1.5.67157-1.5 1.5s.67157 1.5 1.5 1.5h14c.2761 0 .5.22386.5.5v14c0 1.3807-1.1193 2.5-2.5 2.5h-12c-1.38071 0-2.5-1.1193-2.5-2.5zm1 16v-13.99982c.41783.31385.9372.49982 1.5.49982h13.5v13.5c0 .8284-.6716 1.5-1.5 1.5h-12c-.82843 0-1.5-.6716-1.5-1.5z"/></g></svg>