<svg fill="none" height="512" viewBox="0 0 24 24" width="512" xmlns="http://www.w3.org/2000/svg"><g clip-rule="evenodd" fill="rgb(0,0,0)" fill-rule="evenodd"><path d="m12.5 10.7676c-.2942-.1702-.6357-.2676-1-.2676-1.1046 0-2 .8954-2 2s.8954 2 2 2 2-.8954 2-2v-4.69098l1.2764.63819c.247.1235.5473.02339.6708-.2236s.0234-.54733-.2236-.67082l-2-1c-.155-.0775-.3391-.06922-.4865.02189-.1474.0911-.2371.25203-.2371.42532zm-1 .7324c-.5523 0-1 .4477-1 1s.4477 1 1 1 1-.4477 1-1-.4477-1-1-1z"/><path d="m3.5 10c0-4.69442 3.80558-8.5 8.5-8.5 4.6944 0 8.5 3.80558 8.5 8.5 0 .9077-.2977 1.9288-.7468 2.9643-.4522 1.0428-1.075 2.1383-1.7629 3.2053-1.3759 2.1342-3.0378 4.1938-4.193 5.5497-.9517 1.1172-2.6429 1.1172-3.5946 0-1.15519-1.3559-2.81711-3.4155-4.193-5.5497-.68789-1.067-1.31067-2.1625-1.76292-3.2053-.44913-1.0355-.74678-2.0566-.74678-2.9643zm8.5-7.5c-4.14214 0-7.5 3.35786-7.5 7.5 0 .7092.23803 1.5838.66422 2.5665.42307.9755 1.01527 2.0209 1.68596 3.0613 1.34128 2.0805 2.971 4.1017 4.11372 5.4431.5524.6485 1.5198.6485 2.0722 0 1.1427-1.3414 2.7724-3.3626 4.1137-5.4431.6707-1.0404 1.2629-2.0858 1.686-3.0613.4262-.9827.6642-1.8573.6642-2.5665 0-4.14214-3.3579-7.5-7.5-7.5z"/></g></svg>