<svg fill="none" height="512" viewBox="0 0 24 24" width="512" xmlns="http://www.w3.org/2000/svg"><g fill="rgb(0,0,0)"><path d="m5.5 8c0-.27614.22386-.5.5-.5h2c.27614 0 .5.22386.5.5s-.22386.5-.5.5h-2c-.27614 0-.5-.22386-.5-.5z"/><path d="m6 11.5c-.27614 0-.5.2239-.5.5s.22386.5.5.5h4c.2761 0 .5-.2239.5-.5s-.2239-.5-.5-.5z"/><path d="m5.5 16c0-.2761.22386-.5.5-.5h5c.2761 0 .5.2239.5.5s-.2239.5-.5.5h-5c-.27614 0-.5-.2239-.5-.5z"/><path d="m14 15.5c-.2761 0-.5.2239-.5.5s.2239.5.5.5h4c.2761 0 .5-.2239.5-.5s-.2239-.5-.5-.5z"/><path d="m12.5 12c0-.2761.2239-.5.5-.5h5c.2761 0 .5.2239.5.5s-.2239.5-.5.5h-5c-.2761 0-.5-.2239-.5-.5z"/><path d="m11 7.5c-.2761 0-.5.22386-.5.5s.2239.5.5.5h7c.2761 0 .5-.22386.5-.5s-.2239-.5-.5-.5z"/><path clip-rule="evenodd" d="m1.5 12c0-5.79899 4.70101-10.5 10.5-10.5 5.799 0 10.5 4.70101 10.5 10.5 0 5.799-4.701 10.5-10.5 10.5-5.79899 0-10.5-4.701-10.5-10.5zm10.5-9.5c-5.24671 0-9.5 4.25329-9.5 9.5 0 5.2467 4.25329 9.5 9.5 9.5 5.2467 0 9.5-4.2533 9.5-9.5 0-5.24671-4.2533-9.5-9.5-9.5z" fill-rule="evenodd"/></g></svg>