<svg fill="none" height="512" viewBox="0 0 24 24" width="512" xmlns="http://www.w3.org/2000/svg"><path clip-rule="evenodd" d="m19.5 3c0-.16203-.0785-.31403-.2107-.40779-.1321-.09376-.3015-.11767-.4545-.06414l-9.99998 3.5c-.20054.07019-.33482.25946-.33482.47193v8.0505c-.63526-.6483-1.52066-1.0505-2.5-1.0505-1.933 0-3.5 1.567-3.5 3.5s1.567 3.5 3.5 3.5 3.5-1.567 3.5-3.5c0-.1229-.00634-.2444-.0187-.364.01218-.0433.0187-.0889.0187-.136v-9.64526l9-3.15v7.84576c-.6353-.6483-1.5207-1.0505-2.5-1.0505-1.933 0-3.5 1.567-3.5 3.5s1.567 3.5 3.5 3.5 3.5-1.567 3.5-3.5zm-1 11c0-1.3807-1.1193-2.5-2.5-2.5s-2.5 1.1193-2.5 2.5 1.1193 2.5 2.5 2.5 2.5-1.1193 2.5-2.5zm-12.5.5c-1.38071 0-2.5 1.1193-2.5 2.5s1.11929 2.5 2.5 2.5 2.5-1.1193 2.5-2.5-1.11929-2.5-2.5-2.5z" fill="rgb(0,0,0)" fill-rule="evenodd"/></svg>