<svg fill="none" height="512" viewBox="0 0 24 24" width="512" xmlns="http://www.w3.org/2000/svg"><path clip-rule="evenodd" d="m19.2893 2.59221c.1322.09376.2107.24576.2107.40779v3.98781c.0002.00816.0002.01631 0 .02443v6.98776c0 1.933-1.567 3.5-3.5 3.5s-3.5-1.567-3.5-3.5 1.567-3.5 3.5-3.5c.9793 0 1.8647.4022 2.5 1.0505v-3.84574l-9 3.15004v5.7698c0 .035-.00362.0693-.01049.1023.00695.0902.01049.1812.01049.2731 0 1.933-1.567 3.5-3.5 3.5s-3.5-1.567-3.5-3.5 1.567-3.5 3.5-3.5c.97934 0 1.86474.4022 2.5 1.0505v-4.0395c-.00016-.0073-.00016-.0147 0-.022v-3.989c0-.21247.13428-.40174.33482-.47193l9.99998-3.5c.153-.05353.3224-.02962.4545.06414zm-9.7893 7.20307 9-3.15v-2.94054l-9 3.15zm6.5 1.70472c1.3807 0 2.5 1.1193 2.5 2.5s-1.1193 2.5-2.5 2.5-2.5-1.1193-2.5-2.5 1.1193-2.5 2.5-2.5zm-12.5 5.5c0-1.3807 1.11929-2.5 2.5-2.5s2.5 1.1193 2.5 2.5-1.11929 2.5-2.5 2.5-2.5-1.1193-2.5-2.5z" fill="rgb(0,0,0)" fill-rule="evenodd"/></svg>