<svg fill="none" height="512" viewBox="0 0 24 24" width="512" xmlns="http://www.w3.org/2000/svg"><g clip-rule="evenodd" fill="rgb(0,0,0)" fill-rule="evenodd"><path d="m8 13c.36429 0 .70583.0974 1 .2676v-3.7676c0-.21131.13284-.3998.33183-.47087l6.99997-2.5c.1532-.05469.3233-.0315.4562.06216.1329.09367.212.24611.212.40871v7c0 1.1046-.8954 2-2 2s-2-.8954-2-2 .8954-2 2-2c.3643 0 .7058.0974 1 .2676v-4.5581l-6 2.14286v5.14764c0 1.1046-.89543 2-2 2s-2-.8954-2-2 .89543-2 2-2zm-1 2c0-.5523.44772-1 1-1s1 .4477 1 1-.44772 1-1 1-1-.4477-1-1zm9-1c0-.5523-.4477-1-1-1s-1 .4477-1 1 .4477 1 1 1 1-.4477 1-1z"/><path d="m12 1.5c-5.79899 0-10.5 4.70101-10.5 10.5 0 5.799 4.70101 10.5 10.5 10.5 5.799 0 10.5-4.701 10.5-10.5 0-5.79899-4.701-10.5-10.5-10.5zm-9.5 10.5c0-5.24671 4.25329-9.5 9.5-9.5 5.2467 0 9.5 4.25329 9.5 9.5 0 5.2467-4.2533 9.5-9.5 9.5-5.24671 0-9.5-4.2533-9.5-9.5z"/></g></svg>