<svg fill="none" height="512" viewBox="0 0 24 24" width="512" xmlns="http://www.w3.org/2000/svg"><g clip-rule="evenodd" fill="rgb(0,0,0)" fill-rule="evenodd"><path d="m9 13.7676c-.29417-.1702-.63571-.2676-1-.2676-1.10457 0-2 .8954-2 2s.89543 2 2 2 2-.8954 2-2v-3.6476l6-2.1429v3.0581c-.2942-.1702-.6357-.2676-1-.2676-1.1046 0-2 .8954-2 2s.8954 2 2 2 2-.8954 2-2v-5.48839c.0002-.00773.0002-.01548 0-.02325v-2.48836c0-.1626-.0791-.31504-.212-.40871-.1329-.09366-.303-.11685-.4562-.06216l-6.99997 2.5c-.19899.07107-.33183.25956-.33183.47087v2.4884c-.00018.0077-.00018.0155 0 .0232zm-1 .7324c-.55228 0-1 .4477-1 1s.44772 1 1 1 1-.4477 1-1-.44772-1-1-1zm8 0c0-.5523-.4477-1-1-1s-1 .4477-1 1 .4477 1 1 1 1-.4477 1-1zm0-5.85236-6 2.14286v-1.43814l6-2.14286z"/><path d="m1.5 12c0-5.79899 4.70101-10.5 10.5-10.5 5.799 0 10.5 4.70101 10.5 10.5 0 5.799-4.701 10.5-10.5 10.5-5.79899 0-10.5-4.701-10.5-10.5zm10.5-9.5c-5.24671 0-9.5 4.25329-9.5 9.5 0 5.2467 4.25329 9.5 9.5 9.5 5.2467 0 9.5-4.2533 9.5-9.5 0-5.24671-4.2533-9.5-9.5-9.5z"/></g></svg>