<svg fill="none" height="512" viewBox="0 0 24 24" width="512" xmlns="http://www.w3.org/2000/svg"><g fill="rgb(0,0,0)"><path d="m7.5 3c0-.27614.22386-.5.5-.5h8c.2761 0 .5.22386.5.5s-.2239.5-.5.5h-8c-.27614 0-.5-.22386-.5-.5z"/><path d="m6.5 6c-.27614 0-.5.22386-.5.5s.22386.5.5.5h11c.2761 0 .5-.22386.5-.5s-.2239-.5-.5-.5z"/><g clip-rule="evenodd" fill-rule="evenodd"><path d="m10.2572 11.5713c-.1544-.0927-.34679-.0952-.50355-.0064-.15675.0888-.25365.255-.25365.4351v6c0 .1801.0969.3463.25365.4351.15676.0888.34915.0863.50355-.0064l5-3c.1507-.0903.2428-.2531.2428-.4287s-.0921-.3384-.2428-.4287zm3.771 3.4287-3.5282 2.1169v-4.2338z"/><path d="m6 8.5c-1.38071 0-2.5 1.11929-2.5 2.5v8c0 1.3807 1.11929 2.5 2.5 2.5h12c1.3807 0 2.5-1.1193 2.5-2.5v-8c0-1.38071-1.1193-2.5-2.5-2.5zm-1.5 2.5c0-.8284.67157-1.5 1.5-1.5h12c.8284 0 1.5.6716 1.5 1.5v8c0 .8284-.6716 1.5-1.5 1.5h-12c-.82843 0-1.5-.6716-1.5-1.5z"/></g></g></svg>