<svg fill="none" height="512" viewBox="0 0 24 24" width="512" xmlns="http://www.w3.org/2000/svg"><path clip-rule="evenodd" d="m4 1.5c-1.38071 0-2.5 1.11929-2.5 2.5v8c0 1.3807 1.11929 2.5 2.5 2.5h4.5v.5c0 1.3673 1.0977 2.4783 2.4599 2.4997l-3.35033 4.188c-.17251.2156-.13755.5302.07808.7027s.53028.1376.70278-.0781l3.10957-3.8869v3.5746c0 .2761.2239.5.5.5s.5-.2239.5-.5v-3.5746l3.1096 3.8869c.1725.2157.4871.2506.7027.0781.2157-.1725.2506-.4871.0781-.7027l-3.3503-4.188c1.3622-.0214 2.4599-1.1324 2.4599-2.4997v-.5h4.5c1.3807 0 2.5-1.1193 2.5-2.5v-8c0-1.38071-1.1193-2.5-2.5-2.5zm9 15c.8284 0 1.5-.6716 1.5-1.5v-.5h-5v.5c0 .8284.6716 1.5 1.5 1.5zm-1.5-3h-7.5c-.82843 0-1.5-.6716-1.5-1.5v-8c0-.82843.67157-1.5 1.5-1.5h7.5zm1 0v-11h7.5c.8284 0 1.5.67157 1.5 1.5v8c0 .8284-.6716 1.5-1.5 1.5z" fill="rgb(0,0,0)" fill-rule="evenodd"/></svg>