<svg fill="none" height="512" viewBox="0 0 24 24" width="512" xmlns="http://www.w3.org/2000/svg"><g clip-rule="evenodd" fill="rgb(0,0,0)" fill-rule="evenodd"><path d="m12.5 14.7676c-.2942-.1702-.6357-.2676-1-.2676-1.1046 0-2 .8954-2 2s.8954 2 2 2 2-.8954 2-2v-4.691l1.2764.6382c.247.1235.5473.0234.6708-.2236s.0234-.5473-.2236-.6708l-2-1c-.155-.0775-.3391-.0692-.4865.0219s-.2371.252-.2371.4253zm-1 .7324c-.5523 0-1 .4477-1 1s.4477 1 1 1 1-.4477 1-1-.4477-1-1-1z"/><path d="m8 7.5v-.5c0-2.20914 1.79086-4 4-4 2.2091 0 4 1.79086 4 4v.5h.1378c1.3116 0 2.4002 1.01362 2.4936 2.32188l.7143 10.00002c.1034 1.4472-1.0428 2.6781-2.4937 2.6781h-9.70404c-1.45086 0-2.59702-1.2309-2.49365-2.6781l.71428-10.00002c.09345-1.30826 1.18206-2.32188 2.49365-2.32188zm1-.5c0-1.65685 1.3431-3 3-3s3 1.34315 3 3v.5h-6zm-1.13776 1.5c-.78696 0-1.44012.60817-1.49619 1.39313l-.71428 9.99997c-.06202.8683.62567 1.6069 1.49619 1.6069h9.70404c.8706 0 1.5583-.7386 1.4962-1.6069l-.7142-9.99997c-.0561-.78496-.7093-1.39313-1.4962-1.39313z"/></g></svg>