<svg fill="none" height="512" viewBox="0 0 24 24" width="512" xmlns="http://www.w3.org/2000/svg"><g clip-rule="evenodd" fill="rgb(0,0,0)" fill-rule="evenodd"><path d="m12.5 14.7676c-.2942-.1702-.6357-.2676-1-.2676-1.1046 0-2 .8954-2 2s.8954 2 2 2 2-.8954 2-2v-4.691l1.2764.6382c.247.1235.5473.0234.6708-.2236s.0234-.5473-.2236-.6708l-2-1c-.155-.0775-.3391-.0692-.4865.0219s-.2371.252-.2371.4253zm-1 .7324c-.5523 0-1 .4477-1 1s.4477 1 1 1 1-.4477 1-1-.4477-1-1-1z"/><path d="m9.22359 1.55277c.24699.1235.34711.42384.22361.67082l-2.6382 5.27641h10.382l-2.6382-5.27641c-.1235-.24698-.0234-.54732.2236-.67082.247-.12349.5473-.02338.6708.22361l2.8618 5.72362h3.691c.2761 0 .5.22386.5.5s-.2239.5-.5.5h-.5645l-1.5013 10.8429c-.1712 1.2365-1.2281 2.1572-2.4764 2.1572h-10.91564c-1.24822 0-2.30518-.9207-2.47638-2.1572l-1.50133-10.8429h-.56445c-.27614 0-.5-.22386-.5-.5s.22386-.5.5-.5h3.69096l2.86181-5.72362c.1235-.24699.42383-.3471.67082-.22361zm8.76691 6.94723c.0066.00013.0131.00013.0197 0h2.4158l-1.4823 10.7058c-.1028.7418-.7369 1.2943-1.4859 1.2943h-10.91564c-.74893 0-1.38311-.5525-1.48583-1.2943l-1.48234-10.7058h2.41577c.00657.00013.01313.00013.01968 0z"/></g></svg>