<svg fill="none" height="512" viewBox="0 0 24 24" width="512" xmlns="http://www.w3.org/2000/svg"><g clip-rule="evenodd" fill="rgb(0,0,0)" fill-rule="evenodd"><path d="m12.5 11.7676c-.2942-.1702-.6357-.2676-1-.2676-1.1046 0-2 .8954-2 2s.8954 2 2 2 2-.8954 2-2v-4.69098l1.2764.63819c.247.1235.5473.02339.6708-.2236s.0234-.54733-.2236-.67082l-2-1c-.155-.0775-.3391-.06922-.4865.02189-.1474.0911-.2371.25203-.2371.42532zm-1 .7324c-.5523 0-1 .4477-1 1s.4477 1 1 1 1-.4477 1-1-.4477-1-1-1z"/><path d="m10.5058 2.8951c.9059-.6039 2.0984-.55215 2.9485.12795l.3588.28703c.4569.36549 1.0846.43199 1.6079.17033l.4331-.21657c.3471-.17357.7299-.26393 1.118-.26393h.0279c1.3807 0 2.5 1.11929 2.5 2.5v13.08099c0 1.336-1.083 2.419-2.419 2.419h-.0948c-.4157 0-.8222-.1231-1.1681-.3537-.4387-.2924-1.0227-.2346-1.3955.1382l-.5204.5205c-1.0395 1.0395-2.7472.962-3.6884-.1673l-.0838-.1007c-.44566-.5347-1.2006-.6927-1.82319-.3814l-.16091.0805c-.34714.1735-.72992.2639-1.11804.2639h-.02786c-1.38071 0-2.5-1.1193-2.5-2.5v-13.38195c0-1.16976.94828-2.11804 2.11803-2.11804.32882 0 .65312.07656.94722.22361l.62024.31012c.48146.24073 1.05499.20502 1.50287-.09356zm2.3238.90882c-.5101-.40806-1.2256-.43911-1.7691-.07677l-.8174.54498c-.7465.49764-1.70239.55715-2.50482.15594l-.62025-.31012c-.15524-.07763-.32643-.11804-.5-.11804-.61747 0-1.11803.50056-1.11803 1.11804v13.38195c0 .8284.67157 1.5 1.5 1.5h.02786c.23287 0 .46254-.0542.67082-.1583l.16091-.0805c1.03765-.5188 2.29591-.2556 3.03861.6356l.0839.1007c.5646.6776 1.5893.7241 2.213.1003l.5204-.5204c.7098-.7098 1.822-.82 2.6573-.2631.1816.1211.3951.1857.6134.1857h.0948c.7837 0 1.419-.6353 1.419-1.419v-13.08099c0-.82843-.6716-1.5-1.5-1.5h-.0279c-.2328 0-.4625.05422-.6708.15836l-.4331.21657c-.8722.43609-1.9184.32526-2.6798-.28389z"/></g></svg>