<svg fill="none" height="512" viewBox="0 0 24 24" width="512" xmlns="http://www.w3.org/2000/svg"><g fill="rgb(0,0,0)"><path d="m12 3.5c-4.69442 0-8.5 3.80558-8.5 8.5 0 4.6944 3.80558 8.5 8.5 8.5.2761 0 .5.2239.5.5s-.2239.5-.5.5c-5.24671 0-9.5-4.2533-9.5-9.5 0-5.24671 4.25329-9.5 9.5-9.5 5.2467 0 9.5 4.25329 9.5 9.5 0 .2761-.2239.5-.5.5s-.5-.2239-.5-.5c0-4.69442-3.8056-8.5-8.5-8.5z"/><path d="m11 7.5c.2761 0 .5.22386.5.5v4.5h4c.2761 0 .5.2239.5.5s-.2239.5-.5.5h-4.5c-.2761 0-.5-.2239-.5-.5v-5c0-.27614.2239-.5.5-.5z"/><path clip-rule="evenodd" d="m15.5 19.5c-1.1046 0-2 .8954-2 2s.8954 2 2 2 2-.8954 2-2c0-.1141-.0096-.226-.0279-.3349.0181-.0517.0279-.1072.0279-.1651v-3.8055l4-1.4769v3.05c-.2942-.1702-.6357-.2676-1-.2676-1.1046 0-2 .8954-2 2s.8954 2 2 2 2-.8954 2-2c0-.0961-.0068-.1906-.0199-.283.013-.0445.0199-.0915.0199-.1401v-5.0769c0-.1635-.08-.3167-.2142-.4102-.1341-.0935-.3056-.1155-.459-.0588l-5 1.8461c-.1964.0725-.3268.2597-.3268.4691v2.9214c-.2942-.1702-.6357-.2676-1-.2676zm-1 2c0-.5523.4477-1 1-1s1 .4477 1 1-.4477 1-1 1-1-.4477-1-1zm6-2c-.5523 0-1 .4477-1 1s.4477 1 1 1 1-.4477 1-1-.4477-1-1-1z" fill-rule="evenodd"/></g></svg>