<svg fill="none" height="512" viewBox="0 0 24 24" width="512" xmlns="http://www.w3.org/2000/svg"><g clip-rule="evenodd" fill="rgb(0,0,0)" fill-rule="evenodd"><path d="m10 3.5c-2.48528 0-4.5 2.01472-4.5 4.5 0 2.4853 2.01472 4.5 4.5 4.5 2.4853 0 4.5-2.0147 4.5-4.5 0-2.48528-2.0147-4.5-4.5-4.5zm-3.5 4.5c0-1.933 1.567-3.5 3.5-3.5s3.5 1.567 3.5 3.5-1.567 3.5-3.5 3.5-3.5-1.567-3.5-3.5z"/><path d="m17.5 10.5c-1.1046 0-2 .8954-2 2s.8954 2 2 2 2-.8954 2-2c0-.0783-.0045-.1555-.0132-.2314.0086-.0369.0132-.0753.0132-.1148v-4.6538h2.5c.2761 0 .5-.22386.5-.5s-.2239-.5-.5-.5h-3c-.2761 0-.5.22386-.5.5v3.7676c-.2942-.1702-.6357-.2676-1-.2676zm-1 2c0-.5523.4477-1 1-1s1 .4477 1 1-.4477 1-1 1-1-.4477-1-1z"/><path d="m7.6 14.5c-3.36894 0-6.1 2.7311-6.1 6.1 0 1.0493.85066 1.9 1.9 1.9h13.2c1.0493 0 1.9-.8507 1.9-1.9 0-3.3689-2.7311-6.1-6.1-6.1zm-5.1 6.1c0-2.8167 2.28335-5.1 5.1-5.1h4.8c2.8167 0 5.1 2.2833 5.1 5.1 0 .4971-.4029.9-.9.9h-13.2c-.49706 0-.9-.4029-.9-.9z"/></g></svg>