<svg fill="none" height="512" viewBox="0 0 24 24" width="512" xmlns="http://www.w3.org/2000/svg"><g fill="rgb(0,0,0)"><path clip-rule="evenodd" d="m7.80866 6.53806c.18684-.07739.40189-.03461.54489.10839l5.00005 4.99995c.1952.1953.1952.5119 0 .7072l-5.00005 5c-.143.143-.35805.1857-.54489.1083s-.30866-.2597-.30866-.4619v-10c0-.20223.12182-.38455.30866-.46194zm.69134 9.25484 3.7929-3.7929-3.7929-3.79289z" fill-rule="evenodd"/><path d="m16 7c0-.27614-.2239-.5-.5-.5s-.5.22386-.5.5v10c0 .2761.2239.5.5.5s.5-.2239.5-.5z"/><path clip-rule="evenodd" d="m1.5 12c0-5.79899 4.70101-10.5 10.5-10.5 5.799 0 10.5 4.70101 10.5 10.5 0 5.799-4.701 10.5-10.5 10.5-5.79899 0-10.5-4.701-10.5-10.5zm10.5-9.5c-5.24671 0-9.5 4.25329-9.5 9.5 0 5.2467 4.25329 9.5 9.5 9.5 5.2467 0 9.5-4.2533 9.5-9.5 0-5.24671-4.2533-9.5-9.5-9.5z" fill-rule="evenodd"/></g></svg>