<svg fill="none" height="512" viewBox="0 0 24 24" width="512" xmlns="http://www.w3.org/2000/svg"><g fill="rgb(0,0,0)"><path d="m10.3536 6.64645c-.1953-.19527-.51189-.19527-.70715 0-.19527.19526-.19527.51184 0 .7071l4.64645 4.64645-4.64645 4.6464c-.19527.1953-.19527.5119 0 .7072.19526.1952.51185.1952.70715 0l5-5c.1952-.1953.1952-.5119 0-.7072z"/><path clip-rule="evenodd" d="m4 1.5c-1.38071 0-2.5 1.11929-2.5 2.5v16c0 1.3807 1.11929 2.5 2.5 2.5h16c1.3807 0 2.5-1.1193 2.5-2.5v-16c0-1.38071-1.1193-2.5-2.5-2.5zm-1.5 2.5c0-.82843.67157-1.5 1.5-1.5h16c.8284 0 1.5.67157 1.5 1.5v16c0 .8284-.6716 1.5-1.5 1.5h-16c-.82843 0-1.5-.6716-1.5-1.5z" fill-rule="evenodd"/></g></svg>