<svg fill="none" height="512" viewBox="0 0 24 24" width="512" xmlns="http://www.w3.org/2000/svg"><g fill="rgb(0,0,0)"><path d="m2.5 12c0-5.24671 4.25329-9.5 9.5-9.5 5.2467 0 9.5 4.25329 9.5 9.5 0 1.1707-.2115 2.2908-.598 3.325-.0966.2587.0347.5467.2934.6434.2586.0966.5467-.0347.6434-.2934.4276-1.1445.6612-2.383.6612-3.675 0-5.79899-4.701-10.5-10.5-10.5-5.79899 0-10.5 4.70101-10.5 10.5 0 5.799 4.70101 10.5 10.5 10.5.5348 0 1.0605-.04 1.5744-.1173.273-.0411.4611-.2958.42-.5688-.041-.2731-.2957-.4612-.5688-.4201-.4647.0699-.9408.1062-1.4256.1062-5.24671 0-9.5-4.2533-9.5-9.5z"/><path d="m16.5 17c0-.2761-.2239-.5-.5-.5s-.5.2239-.5.5v4c0 .2761.2239.5.5.5s.5-.2239.5-.5z"/><path d="m19 16.5c.2761 0 .5.2239.5.5v4c0 .2761-.2239.5-.5.5s-.5-.2239-.5-.5v-4c0-.2761.2239-.5.5-.5z"/><path clip-rule="evenodd" d="m10.2572 8.57125c-.1544-.09268-.34679-.0951-.50355-.00635-.15675.08875-.25365.25496-.25365.4351v6c0 .1801.0969.3463.25365.4351.15676.0888.34915.0863.50355-.0064l5-3c.1507-.0903.2428-.2531.2428-.4287s-.0921-.3384-.2428-.4287zm3.771 3.42875-3.5282 2.1169v-4.23381z" fill-rule="evenodd"/></g></svg>