<svg fill="none" height="512" viewBox="0 0 24 24" width="512" xmlns="http://www.w3.org/2000/svg"><g fill="rgb(0,0,0)"><path d="m17.5812 17.7268c-.1509.2314-.0856.5412.1457.692s.5411.0855.6919-.1458c1.1765-1.8043 1.8601-3.9596 1.8601-6.2731 0-2.31342-.6836-4.46873-1.8601-6.27305-.1508-.23132-.4606-.29657-.6919-.14575s-.2966.46061-.1457.69192c1.0737 1.6468 1.6977 3.61322 1.6977 5.72688 0 2.1137-.624 4.0802-1.6977 5.7269z"/><path d="m6.05202 5.58122c.23131.15082.29657.4606.14575.69192-1.07374 1.64679-1.69777 3.61322-1.69777 5.72696 0 2.1136.62403 4.0801 1.69777 5.7269.15082.2313.08556.5411-.14575.6919-.23132.1508-.5411.0856-.69193-.1458-1.17644-1.8043-1.86009-3.9596-1.86009-6.273 0-2.31351.68365-4.46882 1.8601-6.27314.15082-.23131.4606-.29657.69192-.14574z"/><path d="m15.5939 14.5344c-.1611.2243-.1098.5367.1145.6978.2243.161.5367.1097.6978-.1146.6479-.9024 1.0296-2.0097 1.0296-3.2046s-.3817-2.30221-1.0296-3.20465c-.1611-.22431-.4735-.27559-.6978-.11453s-.2756.47346-.1145.69777c.5299.73811.8419 1.64261.8419 2.62141s-.312 1.8833-.8419 2.6214z"/><path d="m8.22737 8.59388c.22431.16106.27559.47346.11453.69777-.52996.73815-.8419 1.64255-.8419 2.62135 0 .9789.31193 1.8833.8419 2.6214.16106.2244.10978.5368-.11453.6978-.22431.1611-.53671.1098-.69777-.1145-.64796-.9024-1.0296-2.0097-1.0296-3.2047 0-1.1949.38164-2.30215 1.0296-3.20459.16106-.22431.47346-.27559.69777-.11453z"/><path clip-rule="evenodd" d="m9.5 12c0-1.3807 1.1193-2.50001 2.5-2.50001s2.5 1.11931 2.5 2.50001-1.1193 2.5-2.5 2.5-2.5-1.1193-2.5-2.5zm2.5-1.5c-.8284 0-1.5.6716-1.5 1.5s.6716 1.5 1.5 1.5 1.5-.6716 1.5-1.5-.6716-1.5-1.5-1.5z" fill-rule="evenodd"/></g></svg>