<svg fill="none" height="512" viewBox="0 0 24 24" width="512" xmlns="http://www.w3.org/2000/svg"><g fill="rgb(0,0,0)"><path d="m19.5812 14.2268c-.1509.2314-.0856.5412.1457.692s.5411.0855.6919-.1458c1.1765-1.8043 1.8601-3.9596 1.8601-6.27306s-.6836-4.46877-1.8601-6.27309c-.1508-.23132-.4606-.29657-.6919-.14575s-.2966.46061-.1457.69192c1.0737 1.6468 1.6977 3.61322 1.6977 5.72692 0 2.11366-.624 4.08016-1.6977 5.72686z"/><path d="m4.55202 2.08122c.23131.15082.29657.4606.14575.69192-1.07374 1.64679-1.69777 3.61322-1.69777 5.72691 0 2.11365.62403 4.08015 1.69777 5.72695.15082.2313.08556.5411-.14575.6919-.23132.1508-.5411.0856-.69193-.1458-1.17644-1.8043-1.86009-3.9596-1.86009-6.27305 0-2.31346.68365-4.46877 1.8601-6.27309.15082-.23131.4606-.29657.69192-.14574z"/><path d="m17.5939 11.0344c-.1611.2243-.1098.5367.1145.6978.2243.161.5367.1097.6978-.1146.6479-.9024 1.0296-2.00968 1.0296-3.20461s-.3817-2.3022-1.0296-3.20464c-.1611-.22431-.4735-.27559-.6978-.11453s-.2756.47346-.1145.69777c.5299.7381.8419 1.64258.8419 2.6214s-.312 1.88331-.8419 2.62141z"/><path d="m6.8419 5.79165c.16106-.22431.10978-.53671-.11453-.69777s-.53671-.10978-.69777.11453c-.64796.90244-1.0296 2.00971-1.0296 3.20464s.38164 2.30225 1.0296 3.20465c.16106.2243.47346.2756.69777.1145.22431-.161.27559-.4734.11453-.6978-.52997-.7381-.8419-1.64254-.8419-2.62135 0-.97882.31194-1.8833.8419-2.6214z"/><path clip-rule="evenodd" d="m9 5.49999c0-1.65685 1.3431-3 3-3s3 1.34315 3 3v5.00001c0 1.6568-1.3431 3-3 3s-3-1.3432-3-3zm3-2c-1.1046 0-2 .89543-2 2v5.00001c0 1.1046.8954 2 2 2s2-.8954 2-2v-5.00001c0-1.10457-.8954-2-2-2z" fill-rule="evenodd"/><path d="m9 14c0-.2761-.22386-.5-.5-.5-.27615 0-.5.2239-.5.5v.5c0 1.3807 1.11929 2.5 2.5 2.5h1v4.5h-2c-.27615 0-.5.2239-.5.5s.22385.5.5.5h5c.2761 0 .5-.2239.5-.5s-.2239-.5-.5-.5h-2v-4.5h1c1.3807 0 2.5-1.1193 2.5-2.5v-.5c0-.2761-.2239-.5-.5-.5s-.5.2239-.5.5v.5c0 .8284-.6716 1.5-1.5 1.5h-3c-.82843 0-1.5-.6716-1.5-1.5z"/></g></svg>