<svg fill="none" height="512" viewBox="0 0 24 24" width="512" xmlns="http://www.w3.org/2000/svg"><g fill="rgb(0,0,0)"><path clip-rule="evenodd" d="m12 1.5c-1.933 0-3.5 1.567-3.5 3.5v6c0 1.933 1.567 3.5 3.5 3.5s3.5-1.567 3.5-3.5v-6c0-1.933-1.567-3.5-3.5-3.5zm-2.5 3.5c0-1.38071 1.1193-2.5 2.5-2.5s2.5 1.11929 2.5 2.5v6c0 1.3807-1.1193 2.5-2.5 2.5s-2.5-1.1193-2.5-2.5z" fill-rule="evenodd"/><path d="m4.5 9c0-.27614-.22386-.5-.5-.5s-.5.22386-.5.5v1c0 4.5266 3.53831 8.2267 8 8.4855v3.0145h-1.5c-.27614 0-.5.2239-.5.5s.22386.5.5.5h4c.2761 0 .5-.2239.5-.5s-.2239-.5-.5-.5h-1.5v-3.0145c4.4617-.2588 8-3.9589 8-8.4855v-1c0-.27614-.2239-.5-.5-.5s-.5.22386-.5.5v1c0 4.1421-3.3579 7.5-7.5 7.5-4.14214 0-7.5-3.3579-7.5-7.5z"/></g></svg>