<svg fill="none" height="512" viewBox="0 0 24 24" width="512" xmlns="http://www.w3.org/2000/svg"><g clip-rule="evenodd" fill="rgb(0,0,0)" fill-rule="evenodd"><path d="m12 6.5c-3.03757 0-5.5 2.46243-5.5 5.5 0 3.0376 2.46243 5.5 5.5 5.5 3.0376 0 5.5-2.4624 5.5-5.5 0-3.03757-2.4624-5.5-5.5-5.5zm-4.5 5.5c0-2.48528 2.01472-4.5 4.5-4.5 2.4853 0 4.5 2.01472 4.5 4.5 0 2.4853-2.0147 4.5-4.5 4.5-2.48528 0-4.5-2.0147-4.5-4.5z"/><path d="m4 1.5c-1.38071 0-2.5 1.11929-2.5 2.5v16c0 1.3807 1.11929 2.5 2.5 2.5h16c1.3807 0 2.5-1.1193 2.5-2.5v-16c0-1.38071-1.1193-2.5-2.5-2.5zm-1.5 2.5c0-.82843.67157-1.5 1.5-1.5h16c.8284 0 1.5.67157 1.5 1.5v16c0 .8284-.6716 1.5-1.5 1.5h-16c-.82843 0-1.5-.6716-1.5-1.5z"/></g></svg>