<svg fill="none" height="512" viewBox="0 0 24 24" width="512" xmlns="http://www.w3.org/2000/svg"><g fill="rgb(0,0,0)"><path d="m12.3143 1.61112c-.2148-.17356-.5296-.14014-.7032.07464s-.1401.52959.0746.70315l1.15.92929h-.8357c-5.25143 0-9.5 4.29874-9.5 9.5909 0 5.2922 4.24857 9.5909 9.5 9.5909 5.2514 0 9.5-4.2987 9.5-9.5909 0-3.34644-1.6983-6.29397-4.2727-8.00968-.2298-.15314-.5402-.091-.6934.13879-.1531.22978-.091.54021.1388.69335 2.3056 1.53653 3.8273 4.17667 3.8273 7.17754 0 4.7494-3.8103 8.5909-8.5 8.5909-4.68969 0-8.5-3.8415-8.5-8.5909 0-4.74937 3.81031-8.5909 8.5-8.5909h.8357l-1.15.92928c-.2147.17357-.2482.48838-.0746.70316s.4884.2482.7032.07464l2.25-1.81818c.1174-.09493.1857-.23787.1857-.3889s-.0683-.29397-.1857-.3889z"/><path clip-rule="evenodd" d="m12 7.50002c-3.03757 0-5.5 2.46243-5.5 5.49998 0 3.0376 2.46243 5.5 5.5 5.5 3.0376 0 5.5-2.4624 5.5-5.5 0-3.03755-2.4624-5.49998-5.5-5.49998zm-4.5 5.49998c0-2.4853 2.01472-4.49998 4.5-4.49998 2.4853 0 4.5 2.01468 4.5 4.49998s-2.0147 4.5-4.5 4.5c-2.48528 0-4.5-2.0147-4.5-4.5z" fill-rule="evenodd"/></g></svg>