<svg fill="none" height="512" viewBox="0 0 24 24" width="512" xmlns="http://www.w3.org/2000/svg"><g fill="rgb(0,0,0)"><path d="m12.3536 6.64645c.1952.19526.1952.51184 0 .7071l-4.64649 4.64645 4.64649 4.6464c.1952.1953.1952.5119 0 .7072-.1953.1952-.5119.1952-.7072 0l-4.99995-5c-.19527-.1953-.19527-.5119 0-.7072l4.99995-4.99995c.1953-.19527.5119-.19527.7072 0z"/><path d="m16.3536 7.35355c.1952-.19526.1952-.51184 0-.7071-.1953-.19527-.5119-.19527-.7072 0l-5 4.99995c-.1952.1953-.1952.5119 0 .7072l5 5c.1953.1952.5119.1952.7072 0 .1952-.1953.1952-.5119 0-.7072l-4.6465-4.6464z"/><path clip-rule="evenodd" d="m1.5 12c0-5.79899 4.70101-10.5 10.5-10.5 5.799 0 10.5 4.70101 10.5 10.5 0 5.799-4.701 10.5-10.5 10.5-5.79899 0-10.5-4.701-10.5-10.5zm10.5-9.5c-5.24671 0-9.5 4.25329-9.5 9.5 0 5.2467 4.25329 9.5 9.5 9.5 5.2467 0 9.5-4.2533 9.5-9.5 0-5.24671-4.2533-9.5-9.5-9.5z" fill-rule="evenodd"/></g></svg>