<svg fill="none" height="512" viewBox="0 0 24 24" width="512" xmlns="http://www.w3.org/2000/svg"><path clip-rule="evenodd" d="m3 18v-12c0-.27614.22386-.5.5-.5s.5.22386.5.5v5l7.2-5.4c.1515-.11363.3542-.13191.5236-.04721s.2764.25783.2764.44721v5.388l8.2117-5.79648c.1526-.10772.3525-.1214.5183-.03546.1659.08593.27.25715.27.44394v12c0 .1868-.1041.358-.27.4439-.1658.086-.3657.0723-.5183-.0354l-8.2117-5.7965v5.388c0 .1894-.107.3625-.2764.4472s-.3721.0664-.5236-.0472l-7.2-5.4v5c0 .2761-.22386.5-.5.5s-.5-.2239-.5-.5zm1.33333-6 6.66667 5v-10zm15.66667 5.035-7.133-5.035 7.133-5.03504z" fill="rgb(0,0,0)" fill-rule="evenodd"/></svg>