<svg fill="none" height="512" viewBox="0 0 24 24" width="512" xmlns="http://www.w3.org/2000/svg"><g clip-rule="evenodd" fill="rgb(0,0,0)" fill-rule="evenodd"><path d="m1.5 4c0-1.38071 1.11929-2.5 2.5-2.5h16c1.3807 0 2.5 1.11929 2.5 2.5v16c0 1.3807-1.1193 2.5-2.5 2.5h-16c-1.38071 0-2.5-1.1193-2.5-2.5zm2.5-1.5c-.82843 0-1.5.67157-1.5 1.5v16c0 .8284.67157 1.5 1.5 1.5h16c.8284 0 1.5-.6716 1.5-1.5v-16c0-.82843-.6716-1.5-1.5-1.5z"/><path d="m12.3536 6.64645c.1952.19526.1952.51184 0 .7071l-4.64649 4.64645 4.64649 4.6464c.1952.1953.1952.5119 0 .7072-.1953.1952-.5119.1952-.7072 0l-4.99995-5c-.19527-.1953-.19527-.5119 0-.7072l4.99995-4.99995c.1953-.19527.5119-.19527.7072 0z"/><path d="m16.3536 6.64645c.1952.19526.1952.51184 0 .7071l-4.6465 4.64645 4.6465 4.6464c.1952.1953.1952.5119 0 .7072-.1953.1952-.5119.1952-.7072 0l-5-5c-.1952-.1953-.1952-.5119 0-.7072l5-4.99995c.1953-.19527.5119-.19527.7072 0z"/></g></svg>