<svg fill="none" height="512" viewBox="0 0 24 24" width="512" xmlns="http://www.w3.org/2000/svg"><g clip-rule="evenodd" fill="rgb(0,0,0)" fill-rule="evenodd"><path d="m11.2359 7.55916c.1626.08701.2641.25644.2641.44084v3.0657l5.2227-3.48172c.1534-.10229.3507-.11183.5132-.02482.1626.08701.2641.25644.2641.44084v8c0 .1844-.1015.3538-.2641.4408-.1625.087-.3598.0775-.5132-.0248l-5.2227-3.4817v3.0657c0 .1844-.1015.3538-.2641.4408-.1625.087-.3598.0775-.5132-.0248l-6.00005-4c-.1391-.0927-.22265-.2488-.22265-.416s.08355-.3233.22265-.416l6.00005-4.00002c.1534-.10229.3507-.11183.5132-.02482zm-.7359 1.3751-4.59861 3.06574 4.59861 3.0657zm6 6.13144-4.5986-3.0657 4.5986-3.06574z"/><path d="m1.5 12c0-5.79899 4.70101-10.5 10.5-10.5 5.799 0 10.5 4.70101 10.5 10.5 0 5.799-4.701 10.5-10.5 10.5-5.79899 0-10.5-4.701-10.5-10.5zm10.5-9.5c-5.24671 0-9.5 4.25329-9.5 9.5 0 5.2467 4.25329 9.5 9.5 9.5 5.2467 0 9.5-4.2533 9.5-9.5 0-5.24671-4.2533-9.5-9.5-9.5z"/></g></svg>