<svg fill="none" height="512" viewBox="0 0 24 24" width="512" xmlns="http://www.w3.org/2000/svg"><g fill="rgb(0,0,0)"><path d="m13.8886 5.67992c.1768-.21214.4921-.2408.7042-.06402l2.7273 2.27273c.1149.09573.1809.23787.1799.38741-.001.14953-.0689.29078-.185.385l-2.7273 2.21246c-.2144.174-.5293.1412-.7033-.0733-.1739-.2144-.1411-.5293.0733-.7033l1.6323-1.32416h-6.77182c-.72801 0-1.31818.59017-1.31818 1.31816v.9091c0 .2762-.22386.5-.5.5s-.5-.2238-.5-.5v-.9091c0-1.28027 1.03789-2.31816 2.31818-2.31816h6.80082l-1.6664-1.38862c-.2121-.17678-.2408-.49206-.064-.7042z"/><path d="m9.42046 17.9143c.21804.1695.53216.1301.70164-.088.1694-.218.13-.5321-.088-.7016l-1.5759-1.2247h6.7236c1.2183 0 2.3182-.8821 2.3182-2.1v-.8c0-.2761-.2239-.5-.5-.5s-.5.2239-.5.5v.8c0 .5494-.5282 1.1-1.3182 1.1h-6.65448l1.49568-1.0968c.2226-.1633.2708-.4762.1075-.6989-.16333-.2227-.47623-.2708-.69891-.1075l-2.72727 2c-.12646.0927-.20208.2394-.20427.3962s.06931.3056.19313.4018z"/><path clip-rule="evenodd" d="m1.5 12c0-5.79899 4.70101-10.5 10.5-10.5 5.799 0 10.5 4.70101 10.5 10.5 0 5.799-4.701 10.5-10.5 10.5-5.79899 0-10.5-4.701-10.5-10.5zm10.5-9.5c-5.24671 0-9.5 4.25329-9.5 9.5 0 5.2467 4.25329 9.5 9.5 9.5 5.2467 0 9.5-4.2533 9.5-9.5 0-5.24671-4.2533-9.5-9.5-9.5z" fill-rule="evenodd"/></g></svg>