<svg fill="none" height="512" viewBox="0 0 24 24" width="512" xmlns="http://www.w3.org/2000/svg"><g fill="rgb(0,0,0)"><path d="m5.5 8.5c0-.27614.22386-.5.5-.5h4c.7889 0 1.4214.53043 1.8277 1.12783.0013.00191.0026.00383.0039.00574.1879-.33047.4507-.60087.7753-.81107.66-.4274 1.523-.5725 2.3931-.5725h1.5l-1.8-1.35c-.2209-.16569-.2657-.47909-.1-.7s.4791-.26569.7-.1l3 2.25c.1259.09443.2.24262.2.4s-.0741.30557-.2.4l-3 2.25c-.2209.1657-.5343.1209-.7-.1s-.1209-.5343.1-.7l1.8-1.35h-1.5c-.7867 0-1.4238.13615-1.8495.41187-.3907.25296-.6505.6517-.6505 1.33813v3c0 .6864.2598 1.0852.6505 1.3381.4257.2758 1.0628.4119 1.8495.4119h1.5l-1.8-1.35c-.2209-.1657-.2657-.4791-.1-.7s.4791-.2657.7-.1l3 2.25c.1261.0946.2002.2431.2.4007s-.0747.3059-.2011.4001l-3 2.2375c-.2213.1651-.5346.1195-.6997-.1019s-.1195-.5346.1019-.6997l1.7922-1.3367h-1.4933c-.8701 0-1.7331-.1451-2.3931-.5725-.3246-.2102-.5874-.4806-.7753-.8111-.0013.0019-.0026.0039-.0039.0058-.4063.5974-1.0388 1.1278-1.8277 1.1278h-4c-.27614 0-.5-.2239-.5-.5s.22386-.5.5-.5h4c.3157 0 .6832-.2232 1.0008-.6902.31-.4559.4992-1.0465.4992-1.5598v-1.5012c-.0003-.513-.1894-1.1031-.4992-1.55861-.3176-.46694-.6851-.69019-1.0008-.69019h-4c-.27614 0-.5-.22386-.5-.5z"/><path clip-rule="evenodd" d="m1.5 12c0-5.79899 4.70101-10.5 10.5-10.5 5.799 0 10.5 4.70101 10.5 10.5 0 5.799-4.701 10.5-10.5 10.5-5.79899 0-10.5-4.701-10.5-10.5zm10.5-9.5c-5.24671 0-9.5 4.25329-9.5 9.5 0 5.2467 4.25329 9.5 9.5 9.5 5.2467 0 9.5-4.2533 9.5-9.5 0-5.24671-4.2533-9.5-9.5-9.5z" fill-rule="evenodd"/></g></svg>