<svg fill="none" height="512" viewBox="0 0 24 24" width="512" xmlns="http://www.w3.org/2000/svg"><g fill="rgb(0,0,0)"><path d="m12 2.5c-5.24671 0-9.5 4.2533-9.5 9.5s4.25329 9.5 9.5 9.5c5.2467 0 9.5-4.2533 9.5-9.5 0-.2761.2239-.5.5-.5s.5.2239.5.5c0 5.799-4.701 10.5-10.5 10.5-5.79899 0-10.5-4.701-10.5-10.5 0-5.79899 4.70101-10.5 10.5-10.5.2761 0 .5.22386.5.5s-.2239.5-.5.5z"/><path clip-rule="evenodd" d="m15 1.5c-.2761 0-.5.22386-.5.5v7.55051c-.6353-.64828-1.5207-1.05051-2.5-1.05051-1.933 0-3.5 1.567-3.5 3.5s1.567 3.5 3.5 3.5 3.5-1.567 3.5-3.5v-9.49442c2.9215.1307 5.25 2.54064 5.25 5.49442v.5c0 .27614.2239.5.5.5s.5-.22386.5-.5v-.5c0-3.58985-2.9101-6.5-6.5-6.5zm-.5 10.5c0-1.3807-1.1193-2.5-2.5-2.5s-2.5 1.1193-2.5 2.5 1.1193 2.5 2.5 2.5 2.5-1.1193 2.5-2.5z" fill-rule="evenodd"/></g></svg>