<svg fill="none" height="512" viewBox="0 0 24 24" width="512" xmlns="http://www.w3.org/2000/svg"><g fill="rgb(0,0,0)"><g clip-rule="evenodd" fill-rule="evenodd"><path d="m9.5 3c0-.82843.6716-1.5 1.5-1.5h2c.8284 0 1.5.67157 1.5 1.5v16c0 .2761-.2239.5-.5.5h-4c-.27614 0-.5-.2239-.5-.5zm1.5-.5c-.2761 0-.5.22386-.5.5v15.5h3v-15.5c0-.27614-.2239-.5-.5-.5z"/><path d="m3 5.5c-.82843 0-1.5.67157-1.5 1.5v12c0 .2761.22386.5.5.5h4c.27614 0 .5-.2239.5-.5v-12c0-.82843-.67157-1.5-1.5-1.5zm-.5 1.5c0-.27614.22386-.5.5-.5h2c.27614 0 .5.22386.5.5v11.5h-3z"/><path d="m19 8.5c-.8284 0-1.5.67157-1.5 1.5v9c0 .2761.2239.5.5.5h4c.2761 0 .5-.2239.5-.5v-9c0-.82843-.6716-1.5-1.5-1.5zm-.5 1.5c0-.27614.2239-.5.5-.5h2c.2761 0 .5.22386.5.5v8.5h-3z"/></g><path d="m2 21.5c-.27614 0-.5.2239-.5.5s.22386.5.5.5h4c.27614 0 .5-.2239.5-.5s-.22386-.5-.5-.5z"/><path d="m9.5 22c0-.2761.22386-.5.5-.5h4c.2761 0 .5.2239.5.5s-.2239.5-.5.5h-4c-.27614 0-.5-.2239-.5-.5z"/><path d="m18 21.5c-.2761 0-.5.2239-.5.5s.2239.5.5.5h4c.2761 0 .5-.2239.5-.5s-.2239-.5-.5-.5z"/></g></svg>