<svg fill="none" height="512" viewBox="0 0 24 24" width="512" xmlns="http://www.w3.org/2000/svg"><g fill="rgb(0,0,0)"><path d="m12 4.5c-5.24671 0-9.5 4.25329-9.5 9.5 0 2.1396.70675 4.1128 1.89975 5.7006.16587.2208.12136.5342-.09941.7001-.22078.1659-.53422.1214-.70009-.0994-1.31864-1.7551-2.10025-3.9376-2.10025-6.3013 0-5.79899 4.70101-10.5 10.5-10.5 5.799 0 10.5 4.70101 10.5 10.5 0 2.3637-.7816 4.5462-2.1003 6.3013-.1658.2208-.4793.2653-.7.0994-.2208-.1659-.2653-.4793-.0994-.7001 1.1929-1.5878 1.8997-3.561 1.8997-5.7006 0-5.24671-4.2533-9.5-9.5-9.5z"/><path clip-rule="evenodd" d="m5.5 14c0-3.5899 2.91015-6.5 6.5-6.5 3.5899 0 6.5 2.9101 6.5 6.5s-2.9101 6.5-6.5 6.5c-3.58985 0-6.5-2.9101-6.5-6.5zm2.27337-3.5195c-.79506.9537-1.27337 2.1808-1.27337 3.5195 0 3.0376 2.46243 5.5 5.5 5.5 3.0376 0 5.5-2.4624 5.5-5.5s-2.4624-5.5-5.5-5.5c-1.3387 0-2.56578.47831-3.51953 1.27337l1.87313 1.87303c.1952.1953.1952.5119 0 .7072-.1953.1952-.51189.1952-.70715 0z" fill-rule="evenodd"/></g></svg>