<svg fill="none" height="512" viewBox="0 0 24 24" width="512" xmlns="http://www.w3.org/2000/svg"><g fill="rgb(0,0,0)"><path d="m9.5 8c.27614 0 .5.22386.5.5v7c0 .2761-.22386.5-.5.5s-.5-.2239-.5-.5v-7c0-.27614.22386-.5.5-.5z"/><path d="m15 8.5c0-.27614-.2239-.5-.5-.5s-.5.22386-.5.5v7c0 .2761.2239.5.5.5s.5-.2239.5-.5z"/><path clip-rule="evenodd" d="m1.5 4c0-1.38071 1.11929-2.5 2.5-2.5h16c1.3807 0 2.5 1.11929 2.5 2.5v16c0 1.3807-1.1193 2.5-2.5 2.5h-16c-1.38071 0-2.5-1.1193-2.5-2.5zm2.5-1.5c-.82843 0-1.5.67157-1.5 1.5v16c0 .8284.67157 1.5 1.5 1.5h16c.8284 0 1.5-.6716 1.5-1.5v-16c0-.82843-.6716-1.5-1.5-1.5z" fill-rule="evenodd"/></g></svg>