<svg fill="none" height="512" viewBox="0 0 24 24" width="512" xmlns="http://www.w3.org/2000/svg"><g clip-rule="evenodd" fill="rgb(0,0,0)" fill-rule="evenodd"><path d="m5.05347.700647c.18294-.049017.37786.009529.50351.151228l2.34106 2.640035c.11497.12965.15461.30959.10476.47556-.04985.16596-.18207.29428-.34946.33913l-3.04844.81683c-.16739.04485-.34606-.00016-.47221-.11897s-.18179-.29446-.14705-.46423l.70739-3.45686c.03797-.185541.17751-.333706.36044-.382723zm.07406 3.247473 1.48554-.39805-1.14082-1.28652z"/><path d="m.5 15c0-.2762.223858-.5.5-.5h1.5v-4.50002c0-.27614.22386-.5.5-.5h3c.27614 0 .5.22386.5.5v4.50002h5v-3.563c-.8626-.222-1.5-1.0051-1.5-1.93702 0-1.10457.8954-2 2-2s2 .89543 2 2c0 .93192-.6374 1.71502-1.5 1.93702v3.563h5v-4.50002c0-.27614.2239-.5.5-.5h3c.2761 0 .5.22386.5.5v4.50002h1.5c.2761 0 .5.2238.5.5v8c0 .2761-.2239.5-.5.5h-22c-.276142 0-.5-.2239-.5-.5zm1 .5v7h4v-2.5c0-.2762.22386-.5.5-.5h1.5v-2.5c0-.2762.22386-.5.5-.5h8c.2761 0 .5.2238.5.5v2.5h1.5c.2761 0 .5.2238.5.5v2.5h4v-7zm19-1v-4h-2v4zm-15 0h-2v-4h2zm10 5v-2h-7v2zm-9 1v2h11v-2zm5.5-10.50002c.5523 0 1-.44771 1-1 0-.55228-.4477-1-1-1s-1 .44772-1 1c0 .55229.4477 1 1 1z"/><path d="m20.4824 1.44298c.0113-.18904-.0851-.36828-.2491-.462969-.1641-.094693-.3675-.088593-.5255.015757l-2.9073 1.919552c-.1446.09548-.2295.25903-.2243.43224s.0997.33138.2498.41803l2.6985 1.55801c.1501.08665.3343.08941.4869.0073s.2518-.23737.2622-.41035zm-1.1585 2.61009-1.2973-.749 1.3976-.9228z"/></g></svg>