<svg fill="none" height="512" viewBox="0 0 24 24" width="512" xmlns="http://www.w3.org/2000/svg"><g fill="rgb(0,0,0)"><path d="m5 4.5c-1.38071 0-2.5 1.11929-2.5 2.5v8c0 1.3807 1.11929 2.5 2.5 2.5h2c.27614 0 .5-.2239.5-.5s-.22386-.5-.5-.5h-2c-.82843 0-1.5-.6716-1.5-1.5v-8c0-.82843.67157-1.5 1.5-1.5h14c.8284 0 1.5.67157 1.5 1.5v8c0 .8284-.6716 1.5-1.5 1.5h-2c-.2761 0-.5.2239-.5.5s.2239.5.5.5h2c1.3807 0 2.5-1.1193 2.5-2.5v-8c0-1.38071-1.1193-2.5-2.5-2.5z"/><path clip-rule="evenodd" d="m12.4287 13.7428c-.0903-.1507-.2531-.2428-.4287-.2428s-.3384.0921-.4287.2428l-3.00005 5c-.09268.1544-.0951.3468-.00635.5035.08875.1568.25496.2537.4351.2537h6c.1801 0 .3463-.0969.4351-.2537.0888-.1567.0863-.3491-.0064-.5035zm-.4287 1.229 2.1169 3.5282h-4.2338z" fill-rule="evenodd"/></g></svg>