<svg fill="none" height="512" viewBox="0 0 24 24" width="512" xmlns="http://www.w3.org/2000/svg"><path clip-rule="evenodd" d="m3 2.5c-.27614 0-.5.22386-.5.5v5.5h-.5c-.27614 0-.5.22386-.5.5v3c0 3.0376 2.46243 5.5 5.5 5.5h.52242c.25262 2.8033 2.60858 5 5.47758 5h3c3.5899 0 6.5-2.9101 6.5-6.5v-7c0-.27614-.2239-.5-.5-.5s-.5.22386-.5.5v7c0 3.0376-2.4624 5.5-5.5 5.5h-3c-2.3248 0-4.23776-1.7629-4.4752-4.0247 2.7914-.2642 4.9752-2.6147 4.9752-5.4753v-3c0-.27614-.2239-.5-.5-.5h-.5v-5.5c0-.27614-.2239-.5-.5-.5zm5.5 1v1c0 .27614.22386.5.5.5s.5-.22386.5-.5v-1h2v5h-8v-5h2v1c0 .27614.22386.5.5.5s.5-.22386.5-.5v-1zm-6 6v2.5c0 2.4853 2.01472 4.5 4.5 4.5h1c2.4853 0 4.5-2.0147 4.5-4.5v-2.5z" fill="rgb(0,0,0)" fill-rule="evenodd"/></svg>