<svg fill="none" height="512" viewBox="0 0 24 24" width="512" xmlns="http://www.w3.org/2000/svg"><g fill="rgb(0,0,0)"><path clip-rule="evenodd" d="m8.5 13c0-1.3807 1.11929-2.5 2.5-2.5 1.3807 0 2.5 1.1193 2.5 2.5s-1.1193 2.5-2.5 2.5c-1.38071 0-2.5-1.1193-2.5-2.5zm2.5-1.5c-.8284 0-1.5.6716-1.5 1.5s.6716 1.5 1.5 1.5 1.5-.6716 1.5-1.5-.6716-1.5-1.5-1.5z" fill-rule="evenodd"/><path d="m5.48507 13.0489c.26979-.0589.53624.1121.59514.3819.50516 2.3138 2.24438 4.1683 4.49309 4.8375.2646.0788.4153.3572.3366.6219-.0788.2646-.3572.4153-.6219.3366-2.59533-.7724-4.6014-2.9107-5.18477-5.5827-.05891-.2698.11205-.5363.38184-.5952z"/><path clip-rule="evenodd" d="m21 1.5c-.8284 0-1.5.67157-1.5 1.5 0 .65311.4174 1.20873 1 1.41465v3.42512l-.8603 1.20438c-1.5004-3.27176-4.8047-5.54415-8.6397-5.54415-5.24671 0-9.5 4.25329-9.5 9.5 0 5.2467 4.25329 9.5 9.5 9.5 5.2467 0 9.5-4.2533 9.5-9.5 0-.9881-.1508-1.9409-.4307-2.8367l1.3376-1.87268c.0605-.0848.0931-.18641.0931-.29062v-3.58536c.5826-.20592 1-.76153 1-1.41464 0-.82843-.6716-1.5-1.5-1.5zm-.5 1.5c0-.27614.2239-.5.5-.5s.5.22386.5.5-.2239.5-.5.5-.5-.22386-.5-.5zm-1.544 7.0014-3.3629 4.708c-.1605.2247-.1084.537.1163.6975s.537.1084.6975-.1163l2.9067-4.0694c.1221.5737.1864 1.1687.1864 1.7788 0 4.6944-3.8056 8.5-8.5 8.5-4.69442 0-8.5-3.8056-8.5-8.5 0-4.69442 3.80558-8.5 8.5-8.5 3.6389 0 6.7437 2.28664 7.956 5.5014z" fill-rule="evenodd"/></g></svg>