<svg fill="none" height="512" viewBox="0 0 24 24" width="512" xmlns="http://www.w3.org/2000/svg"><g fill="rgb(0,0,0)"><path clip-rule="evenodd" d="m14.5 3c0-.1844-.1015-.35383-.2641-.44084-.1625-.08701-.3598-.07747-.5132.02482l-5.10945 3.40626c-.21477.14318-.40305.31657-.56072.51249-.01727-.00181-.03479-.00273-.05253-.00273h-4c-1.38071 0-2.5 1.11929-2.5 2.5v6c0 1.3807 1.11929 2.5 2.5 2.5h4c.01774 0 .03526-.0009.05253-.0027.15767.1959.34595.3693.56072.5125l5.10945 3.4062c.1534.1023.3507.1118.5132.0248.1626-.087.2641-.2564.2641-.4408zm-6 12.9296c0 .5016.25065.9699.66795 1.2481l4.33205 2.888v-16.13144l-4.33205 2.88803c-.4173.2782-.66795.74655-.66795 1.24808zm-1-8.4296h-3.5c-.82843 0-1.5.67157-1.5 1.5v6c0 .8284.67157 1.5 1.5 1.5h3.5z" fill-rule="evenodd"/><path d="m16.5672 7.74964c.1382-.23904.4441-.32075.6831-.18251 1.3674.79079 2.2497 2.53397 2.2497 4.47487 0 1.867-.8151 3.5462-2.0902 4.3769-.2314.1507-.5411.0854-.6919-.146-.1507-.2314-.0853-.5411.1461-.6919.9324-.6074 1.636-1.9326 1.636-3.539 0-1.6743-.763-3.03821-1.7503-3.60921-.239-.13825-.3208-.4441-.1825-.68315z"/><path d="m20.2929 6.59483c-.2238-.16178-.5364-.11151-.6981.11228-.1618.22379-.1115.53635.1122.69813.9982.72157 1.793 2.47613 1.793 4.64736 0 2.0817-.7321 3.7888-1.6789 4.5597-.2141.1744-.2463.4893-.072.7035.1744.2141.4893.2463.7035.0719 1.2607-1.0266 2.0474-3.0751 2.0474-5.3351 0-2.34773-.8505-4.4771-2.2071-5.45777z"/></g></svg>