<svg fill="none" height="512" viewBox="0 0 24 24" width="512" xmlns="http://www.w3.org/2000/svg"><g fill="rgb(0,0,0)"><path clip-rule="evenodd" d="m14.2359 2.55916c.1626.08701.2641.25644.2641.44084v18c0 .1844-.1015.3538-.2641.4408-.1625.087-.3598.0775-.5132-.0248l-5.10945-3.4062c-.21477-.1432-.40305-.3166-.56072-.5125-.01727.0018-.03479.0027-.05253.0027h-4c-1.38071 0-2.5-1.1193-2.5-2.5v-6c0-1.38071 1.11929-2.5 2.5-2.5h4c.01774 0 .03526.00092.05253.00273.15767-.19592.34595-.36931.56072-.51249l5.10945-3.40626c.1534-.10229.3507-.11183.5132-.02482zm-5.06795 14.61854c-.4173-.2782-.66795-.7465-.66795-1.2481v-7.85923c0-.50153.25065-.96988.66795-1.24808l4.33205-2.88803v16.13144zm-1.66795-9.6777v9h-3.5c-.82843 0-1.5-.6716-1.5-1.5v-6c0-.82843.67157-1.5 1.5-1.5z" fill-rule="evenodd"/><path d="m21.6995 6.51877c.2391-.13807.3211-.44386.183-.68301s-.4439-.32108-.683-.18301l-4.899 2.82842c-.2391.13807-.3211.44387-.183.68302.1381.23914.4439.32108.683.18301z"/><path d="m21.8825 18.1642c-.1381.2391-.4439.3211-.683.183l-4.899-2.8284c-.2391-.1381-.3211-.4439-.183-.683.1381-.2392.4439-.3211.683-.1831l4.899 2.8285c.2391.138.3211.4438.183.683z"/><path d="m17.5 11.5c-.2761 0-.5.2239-.5.5s.2239.5.5.5h4.5c.2761 0 .5-.2239.5-.5s-.2239-.5-.5-.5z"/></g></svg>