<svg fill="none" height="512" viewBox="0 0 24 24" width="512" xmlns="http://www.w3.org/2000/svg"><g fill="rgb(0,0,0)"><path clip-rule="evenodd" d="m14.5 3c0-.1844-.1015-.35383-.2641-.44084-.1625-.08701-.3598-.07747-.5132.02482l-5.10945 3.40626c-.21477.14318-.40305.31657-.56072.51249-.01727-.00181-.03479-.00273-.05253-.00273h-4c-1.38071 0-2.5 1.11929-2.5 2.5v6c0 1.3807 1.11929 2.5 2.5 2.5h4c.01774 0 .03526-.0009.05253-.0027.15767.1959.34595.3693.56072.5125l5.10945 3.4062c.1534.1023.3507.1118.5132.0248.1626-.087.2641-.2564.2641-.4408zm-6 12.9296c0 .5016.25065.9699.66795 1.2481l4.33205 2.888v-16.13144l-4.33205 2.88803c-.4173.2782-.66795.74655-.66795 1.24808zm-1-8.4296h-3.5c-.82843 0-1.5.67157-1.5 1.5v6c0 .8284.67157 1.5 1.5 1.5h3.5z" fill-rule="evenodd"/><path d="m20 8.5c.2761 0 .5.22386.5.5v2.5h2.5c.2761 0 .5.2239.5.5s-.2239.5-.5.5h-2.5v2.5c0 .2761-.2239.5-.5.5s-.5-.2239-.5-.5v-2.5h-2.5c-.2761 0-.5-.2239-.5-.5s.2239-.5.5-.5h2.5v-2.5c0-.27614.2239-.5.5-.5z"/></g></svg>